<svg xmlns="http://www.w3.org/2000/svg" xmlns:xlink="http://www.w3.org/1999/xlink" width="128" zoomAndPan="magnify" viewBox="0 0 96 95.999999" height="128" preserveAspectRatio="xMidYMid meet" version="1.0"><defs><clipPath id="8cc6ab3c49"><path d="M 51.28125 -56.257812 L 101.875 -5.664062 L -5.675781 101.886719 L -56.269531 51.296875 Z M 51.28125 -56.257812 " clip-rule="nonzero"/></clipPath><clipPath id="1ff19bb84f"><path d="M 51.28125 -56.257812 L 101.769531 -5.769531 L -5.773438 101.773438 L -56.261719 51.285156 Z M 51.28125 -56.257812 " clip-rule="nonzero"/></clipPath><clipPath id="836d969f73"><path d="M 20 17.097656 L 76 17.097656 L 76 78.597656 L 20 78.597656 Z M 20 17.097656 " clip-rule="nonzero"/></clipPath></defs><rect x="-9.6" width="115.2" fill="#ffffff" y="-9.6" height="115.199999" fill-opacity="1"/><rect x="-9.6" width="115.2" fill="#95389e" y="-9.6" height="115.199999" fill-opacity="1"/><g clip-path="url(#8cc6ab3c49)"><g clip-path="url(#1ff19bb84f)"><path fill="#a94cb2" d="M 51.28125 -56.257812 L 101.875 -5.664062 L -5.675781 101.886719 L -56.269531 51.296875 Z M 51.28125 -56.257812 " fill-opacity="1" fill-rule="nonzero"/></g></g><g clip-path="url(#836d969f73)"><path fill="#ffffff" d="M 75.835938 59.308594 C 75.765625 59.1875 75.679688 59.078125 75.585938 58.976562 C 75.425781 58.8125 75.246094 58.675781 75.042969 58.570312 L 74.976562 58.53125 C 72.628906 56.972656 72.058594 56.582031 71.785156 56.394531 C 71.527344 56.214844 71.527344 56.214844 70.574219 55.605469 L 68.257812 54.121094 C 66.683594 53.101562 65.886719 52.125 65.597656 50.894531 C 65.589844 50.734375 65.558594 50.574219 65.507812 50.421875 C 65.5 50.363281 65.484375 50.304688 65.453125 50.253906 L 65.054688 48.914062 C 64.382812 46.734375 63.257812 43.089844 63.011719 42.226562 C 62.585938 40.683594 61.691406 39.484375 60.335938 38.628906 C 59.246094 37.917969 58.160156 37.203125 57.082031 36.480469 C 59.710938 32.589844 61.78125 29.511719 62.675781 28.175781 C 62.777344 28.023438 62.84375 27.855469 62.871094 27.675781 C 63.121094 25.730469 63.371094 23.789062 63.605469 21.835938 C 63.671875 21.289062 63.734375 20.738281 63.792969 20.1875 C 63.855469 19.632812 63.914062 19.085938 63.980469 18.539062 C 64 18.320312 63.960938 18.109375 63.859375 17.910156 C 63.757812 17.714844 63.613281 17.558594 63.421875 17.441406 C 63.246094 17.320312 63.050781 17.25 62.835938 17.238281 C 62.617188 17.222656 62.417969 17.269531 62.226562 17.371094 C 62.171875 17.402344 62.117188 17.425781 62.058594 17.449219 C 61.988281 17.484375 61.910156 17.519531 61.84375 17.558594 C 59.269531 18.992188 56.699219 20.433594 54.136719 21.875 C 53.976562 21.964844 53.84375 22.085938 53.738281 22.238281 L 46.820312 32.496094 C 46.285156 32.636719 45.769531 32.820312 45.269531 33.054688 C 45.105469 33.105469 44.945312 33.09375 44.789062 33.027344 C 44.328125 32.742188 43.878906 32.4375 43.429688 32.132812 C 42.917969 31.789062 42.390625 31.429688 41.851562 31.105469 C 41.441406 30.832031 40.996094 30.625 40.519531 30.484375 C 40.042969 30.34375 39.554688 30.277344 39.058594 30.285156 C 38.5625 30.292969 38.078125 30.375 37.605469 30.53125 C 37.136719 30.6875 36.699219 30.90625 36.292969 31.195312 C 35.875 31.464844 35.507812 31.785156 35.1875 32.164062 C 34.867188 32.542969 34.613281 32.960938 34.421875 33.417969 C 34.230469 33.871094 34.113281 34.347656 34.070312 34.839844 C 34.023438 35.332031 34.054688 35.816406 34.160156 36.300781 C 34.171875 36.378906 34.183594 36.464844 34.199219 36.550781 C 33.851562 36.605469 33.511719 36.695312 33.183594 36.820312 C 32.855469 36.945312 32.542969 37.101562 32.246094 37.289062 C 31.953125 37.480469 31.679688 37.695312 31.425781 37.941406 C 31.175781 38.183594 30.953125 38.453125 30.757812 38.742188 C 30.5625 39.03125 30.398438 39.339844 30.269531 39.664062 C 30.136719 39.988281 30.039062 40.320312 29.976562 40.664062 C 29.914062 41.007812 29.890625 41.355469 29.898438 41.703125 C 29.910156 42.050781 29.957031 42.398438 30.035156 42.738281 C 29.691406 42.792969 29.351562 42.882812 29.023438 43.007812 C 28.695312 43.132812 28.382812 43.289062 28.085938 43.476562 C 27.789062 43.667969 27.515625 43.882812 27.265625 44.128906 C 27.015625 44.371094 26.792969 44.640625 26.59375 44.929688 C 26.398438 45.222656 26.234375 45.527344 26.105469 45.851562 C 25.972656 46.175781 25.875 46.511719 25.8125 46.855469 C 25.75 47.199219 25.722656 47.542969 25.730469 47.894531 C 25.742188 48.242188 25.785156 48.589844 25.867188 48.929688 C 25.355469 49.003906 24.867188 49.15625 24.40625 49.378906 C 23.941406 49.605469 23.519531 49.894531 23.144531 50.246094 C 22.769531 50.597656 22.457031 51 22.203125 51.445312 C 21.953125 51.894531 21.773438 52.371094 21.667969 52.871094 C 21.566406 53.382812 21.542969 53.898438 21.597656 54.417969 C 21.652344 54.933594 21.785156 55.433594 21.996094 55.910156 C 22.207031 56.386719 22.484375 56.824219 22.828125 57.21875 C 23.175781 57.609375 23.570312 57.941406 24.019531 58.214844 C 24.691406 58.660156 25.359375 59.109375 26.03125 59.558594 C 26.617188 59.953125 27.203125 60.347656 27.789062 60.738281 L 27.105469 61.753906 C 25.640625 63.925781 24.1875 66.097656 22.742188 68.269531 L 20.746094 71.25 L 20.699219 71.320312 C 20.585938 71.492188 20.496094 71.671875 20.425781 71.863281 C 20.300781 72.203125 20.234375 72.550781 20.222656 72.914062 C 20.214844 73.277344 20.265625 73.628906 20.371094 73.972656 C 20.480469 74.320312 20.640625 74.640625 20.851562 74.933594 C 21.066406 75.226562 21.320312 75.476562 21.617188 75.6875 L 25.140625 78.03125 C 25.660156 78.378906 26.234375 78.550781 26.863281 78.546875 C 27.066406 78.546875 27.265625 78.53125 27.464844 78.496094 C 28.253906 78.398438 28.886719 78.035156 29.363281 77.402344 C 29.535156 77.15625 29.714844 76.917969 29.894531 76.671875 C 30.125 76.355469 30.359375 76.042969 30.585938 75.714844 C 32.546875 72.828125 34.511719 69.9375 36.476562 67.046875 L 37.058594 66.183594 L 39.601562 67.875 C 41.566406 69.1875 43.40625 70.421875 44.359375 71.039062 L 44.453125 71.117188 C 44.675781 71.257812 44.886719 71.398438 45.097656 71.546875 C 46.269531 72.398438 47.570312 72.957031 48.996094 73.222656 C 50.421875 73.488281 51.835938 73.433594 53.234375 73.058594 C 53.753906 72.90625 54.230469 72.996094 54.660156 73.320312 C 57.191406 75.015625 57.734375 75.378906 58.046875 75.589844 C 58.4375 75.855469 58.457031 75.867188 61.679688 78.007812 L 61.816406 78.101562 C 61.964844 78.214844 62.125 78.308594 62.296875 78.386719 C 62.488281 78.476562 62.695312 78.523438 62.90625 78.523438 C 63.378906 78.554688 63.742188 78.371094 63.992188 77.96875 L 75.460938 60.953125 C 75.632812 60.714844 76.160156 59.90625 75.835938 59.308594 Z M 61.046875 20.996094 L 60.71875 23.65625 C 60.617188 24.488281 60.515625 25.324219 60.410156 26.160156 C 60.398438 26.160156 60.382812 26.15625 60.371094 26.152344 C 60.226562 26.105469 60.082031 26.058594 59.941406 26.007812 L 59.769531 25.941406 L 59.644531 25.894531 C 59.5625 25.859375 59.585938 25.871094 59.722656 25.925781 C 59.644531 25.941406 59.429688 25.792969 59.351562 25.753906 C 59.21875 25.6875 59.082031 25.621094 58.953125 25.546875 C 58.6875 25.402344 58.429688 25.242188 58.179688 25.070312 C 58.09375 25.011719 57.898438 24.925781 57.847656 24.832031 C 57.960938 24.917969 57.980469 24.933594 57.910156 24.878906 C 57.886719 24.863281 57.863281 24.84375 57.839844 24.824219 C 57.78125 24.777344 57.722656 24.726562 57.667969 24.679688 C 57.4375 24.484375 57.214844 24.28125 57.003906 24.0625 C 56.898438 23.957031 56.796875 23.847656 56.699219 23.730469 C 56.648438 23.679688 56.574219 23.609375 56.507812 23.539062 C 57.382812 23.046875 58.257812 22.554688 59.136719 22.0625 Z M 54.855469 25.234375 C 56.089844 26.683594 57.609375 27.71875 59.414062 28.339844 C 58.417969 29.820312 56.816406 32.195312 54.914062 35.035156 C 54.621094 34.839844 54.324219 34.644531 54.03125 34.449219 C 53.640625 34.1875 53.25 33.925781 52.855469 33.667969 C 51.980469 33.070312 51.027344 32.65625 49.992188 32.425781 C 52.035156 29.417969 53.734375 26.894531 54.855469 25.234375 Z M 37.347656 33.734375 C 37.816406 33.203125 38.40625 32.933594 39.117188 32.933594 C 39.484375 32.933594 39.832031 33.019531 40.15625 33.195312 C 40.855469 33.597656 41.527344 34.035156 42.179688 34.503906 C 42.40625 34.664062 42.632812 34.824219 42.863281 34.976562 L 40.191406 38.941406 C 39.894531 38.742188 39.589844 38.554688 39.292969 38.375 C 38.464844 37.945312 37.746094 37.375 37.132812 36.671875 C 36.972656 36.457031 36.855469 36.21875 36.78125 35.957031 C 36.703125 35.699219 36.675781 35.433594 36.695312 35.164062 C 36.71875 34.894531 36.78125 34.636719 36.894531 34.394531 C 37.007812 34.148438 37.160156 33.929688 37.347656 33.734375 Z M 32.929688 40.257812 C 33.148438 39.910156 33.433594 39.632812 33.792969 39.429688 C 34.152344 39.226562 34.535156 39.125 34.949219 39.117188 C 35.324219 39.117188 35.671875 39.207031 35.996094 39.394531 C 36.878906 39.898438 37.734375 40.492188 38.558594 41.0625 L 38.847656 41.265625 C 38.898438 41.328125 38.925781 41.402344 38.929688 41.484375 C 38.839844 42.359375 38.917969 43.214844 39.167969 44.054688 C 39.402344 44.832031 39.835938 45.472656 40.46875 45.976562 C 41.238281 46.566406 42.097656 46.953125 43.050781 47.140625 C 42.703125 47.59375 42.253906 47.890625 41.703125 48.03125 C 41.121094 48.183594 40.578125 48.101562 40.070312 47.785156 L 39.921875 47.691406 C 39.792969 47.609375 39.660156 47.523438 39.523438 47.425781 C 38.960938 47.074219 38.398438 46.710938 37.839844 46.335938 C 36.550781 45.492188 35.140625 44.542969 33.410156 43.34375 C 33.183594 43.164062 32.996094 42.949219 32.847656 42.699219 C 32.703125 42.449219 32.605469 42.179688 32.5625 41.894531 C 32.515625 41.609375 32.527344 41.324219 32.589844 41.042969 C 32.652344 40.757812 32.765625 40.5 32.929688 40.257812 Z M 28.800781 46.375 C 29.011719 46.046875 29.289062 45.785156 29.636719 45.597656 C 29.980469 45.410156 30.347656 45.3125 30.742188 45.3125 C 31.296875 45.320312 31.804688 45.480469 32.261719 45.789062 C 32.984375 46.257812 33.695312 46.738281 34.410156 47.222656 L 36.375 48.527344 C 36.929688 48.890625 37.496094 49.265625 38.035156 49.636719 L 38.238281 49.773438 C 38.523438 49.941406 38.765625 50.160156 38.960938 50.425781 C 39.15625 50.691406 39.292969 50.988281 39.367188 51.308594 C 39.445312 51.628906 39.453125 51.953125 39.398438 52.28125 C 39.34375 52.605469 39.222656 52.90625 39.042969 53.183594 C 38.683594 53.730469 38.183594 54.070312 37.539062 54.199219 C 36.832031 54.335938 36.183594 54.199219 35.589844 53.796875 L 34.773438 53.261719 C 34.410156 53.023438 34.046875 52.785156 33.675781 52.539062 C 32.289062 51.632812 30.917969 50.714844 29.546875 49.777344 C 29.261719 49.609375 29.023438 49.390625 28.828125 49.125 C 28.636719 48.855469 28.503906 48.5625 28.433594 48.238281 C 28.359375 47.917969 28.359375 47.59375 28.421875 47.269531 C 28.484375 46.945312 28.613281 46.648438 28.800781 46.375 Z M 25.386719 55.941406 C 24.78125 55.558594 24.402344 55.019531 24.246094 54.324219 C 24.132812 53.679688 24.261719 53.089844 24.640625 52.550781 C 24.851562 52.226562 25.128906 51.96875 25.46875 51.78125 C 25.8125 51.597656 26.175781 51.503906 26.566406 51.5 C 27.101562 51.507812 27.589844 51.660156 28.03125 51.957031 C 28.738281 52.410156 29.429688 52.875 30.125 53.34375 L 32.195312 54.726562 C 32.75 55.089844 33.316406 55.464844 33.859375 55.835938 L 34.121094 56.015625 C 34.398438 56.183594 34.632812 56.398438 34.820312 56.664062 C 35.011719 56.925781 35.140625 57.214844 35.210938 57.53125 C 35.285156 57.847656 35.289062 58.164062 35.230469 58.484375 C 35.171875 58.800781 35.054688 59.09375 34.875 59.367188 C 34.523438 59.910156 34.027344 60.246094 33.390625 60.378906 C 32.652344 60.511719 31.980469 60.359375 31.371094 59.921875 C 31.320312 59.886719 31.269531 59.855469 31.1875 59.792969 C 30.78125 59.539062 30.378906 59.269531 29.976562 59.003906 L 29.480469 58.679688 C 28.113281 57.765625 26.746094 56.851562 25.386719 55.941406 Z M 29.4375 72.835938 L 29.292969 73.039062 C 28.679688 73.921875 28.066406 74.804688 27.453125 75.671875 C 27.375 75.785156 27.269531 75.863281 27.136719 75.90625 C 27.003906 75.945312 26.871094 75.945312 26.742188 75.898438 C 26.648438 75.875 26.558594 75.835938 26.480469 75.78125 L 25.222656 74.945312 C 24.542969 74.492188 23.863281 74.035156 23.179688 73.589844 C 23.011719 73.480469 22.910156 73.328125 22.871094 73.132812 C 22.835938 72.941406 22.871094 72.761719 22.984375 72.601562 C 23.640625 71.589844 24.292969 70.578125 24.945312 69.558594 C 26 70.257812 27.035156 70.953125 28.074219 71.648438 L 29.570312 72.648438 Z M 36.71875 62.019531 C 36.550781 62.277344 36.371094 62.535156 36.191406 62.796875 C 35.960938 63.144531 35.726562 63.488281 35.492188 63.835938 L 31.066406 70.378906 C 29.546875 69.34375 28.03125 68.308594 26.503906 67.277344 C 26.789062 66.859375 27.097656 66.40625 27.402344 65.953125 C 27.96875 65.121094 28.847656 63.8125 29.964844 62.15625 C 30.566406 62.558594 31.222656 62.835938 31.933594 62.988281 C 32.976562 63.175781 34 63.09375 35.003906 62.746094 L 35.164062 62.675781 C 35.265625 62.632812 35.359375 62.578125 35.449219 62.511719 L 35.898438 62.210938 L 35.828125 62.160156 C 36.230469 61.859375 36.585938 61.511719 36.886719 61.109375 C 37.191406 60.707031 37.429688 60.273438 37.605469 59.804688 C 37.78125 59.332031 37.886719 58.847656 37.925781 58.347656 C 37.960938 57.847656 37.925781 57.351562 37.816406 56.863281 C 38.511719 56.734375 39.15625 56.480469 39.75 56.097656 C 40.339844 55.714844 40.839844 55.234375 41.242188 54.65625 C 41.621094 54.0625 41.875 53.421875 42 52.726562 C 42.128906 52.035156 42.121094 51.34375 41.980469 50.65625 C 42.855469 50.539062 43.636719 50.210938 44.324219 49.664062 C 45.015625 49.117188 45.515625 48.4375 45.824219 47.617188 C 46.074219 46.867188 46.503906 46.238281 47.109375 45.730469 C 47.441406 45.425781 47.730469 45.085938 47.980469 44.714844 C 48.042969 44.625 48.109375 44.535156 48.175781 44.449219 L 48.429688 44.65625 L 40.988281 55.691406 Z M 62.644531 75.464844 C 62.410156 75.3125 62.304688 75.238281 62.265625 75.210938 C 61.402344 74.636719 60.773438 74.226562 60.230469 73.871094 C 59.074219 73.117188 58.308594 72.617188 56.5 71.347656 C 55.648438 70.710938 54.691406 70.378906 53.625 70.363281 C 53.183594 70.367188 52.75 70.425781 52.324219 70.539062 C 51.375 70.78125 50.417969 70.8125 49.453125 70.632812 C 48.488281 70.449219 47.609375 70.074219 46.816406 69.5 C 46.621094 69.371094 46.425781 69.238281 46.234375 69.109375 C 45.941406 68.914062 45.652344 68.71875 45.394531 68.5625 L 45.261719 68.46875 C 43.699219 67.429688 40.761719 65.472656 38.542969 63.992188 L 47.796875 50.242188 C 47.621094 51.328125 47.667969 52.398438 47.945312 53.460938 C 48.222656 54.523438 48.703125 55.484375 49.390625 56.34375 C 50.164062 57.257812 51.035156 58.070312 52.003906 58.78125 C 52.292969 59.011719 52.585938 59.246094 52.867188 59.480469 C 53.183594 59.777344 53.554688 59.902344 53.988281 59.859375 C 54.359375 59.804688 54.652344 59.617188 54.859375 59.304688 C 54.972656 59.148438 55.046875 58.980469 55.085938 58.792969 C 55.125 58.609375 55.121094 58.421875 55.082031 58.238281 C 55.039062 58.054688 54.960938 57.882812 54.847656 57.730469 C 54.734375 57.578125 54.597656 57.457031 54.429688 57.363281 L 52.679688 56.035156 C 52.1875 55.664062 51.765625 55.226562 51.414062 54.71875 C 51.0625 54.214844 50.800781 53.667969 50.625 53.078125 C 50.449219 52.488281 50.371094 51.886719 50.390625 51.273438 C 50.410156 50.660156 50.523438 50.0625 50.734375 49.484375 C 51.082031 48.695312 51.503906 47.945312 52 47.234375 C 52.152344 46.996094 52.304688 46.765625 52.449219 46.53125 C 53.136719 45.4375 53.046875 44.898438 52.046875 44.128906 L 51.746094 43.890625 C 51.300781 43.542969 50.851562 43.1875 50.40625 42.835938 L 50.164062 42.644531 C 49.984375 42.511719 49.808594 42.375 49.617188 42.222656 C 49.898438 41.320312 49.699219 40.699219 49.023438 40.378906 C 48.855469 40.3125 48.675781 40.277344 48.492188 40.277344 C 48.308594 40.277344 48.128906 40.308594 47.957031 40.378906 C 47.785156 40.445312 47.632812 40.542969 47.5 40.667969 C 47.367188 40.792969 47.261719 40.941406 47.183594 41.105469 L 46.644531 41.90625 C 46.289062 42.433594 45.933594 42.960938 45.574219 43.484375 C 45.421875 43.746094 45.222656 43.964844 44.976562 44.140625 C 44.730469 44.320312 44.460938 44.441406 44.164062 44.507812 C 43.867188 44.570312 43.570312 44.574219 43.273438 44.511719 C 42.976562 44.453125 42.703125 44.335938 42.457031 44.164062 C 42.308594 44.0625 42.171875 43.945312 42.050781 43.816406 C 41.882812 43.628906 41.753906 43.421875 41.660156 43.1875 C 41.566406 42.957031 41.515625 42.71875 41.507812 42.46875 C 41.496094 42.21875 41.53125 41.976562 41.609375 41.738281 C 41.683594 41.503906 41.800781 41.285156 41.953125 41.085938 C 42.847656 39.742188 43.753906 38.40625 44.667969 37.070312 C 45.050781 36.460938 45.554688 35.964844 46.171875 35.589844 C 46.789062 35.214844 47.460938 34.992188 48.183594 34.929688 C 49.292969 34.859375 50.308594 35.132812 51.226562 35.757812 L 51.582031 35.992188 C 52.285156 36.457031 52.984375 36.914062 53.683594 37.390625 C 54.238281 37.753906 54.804688 38.128906 55.359375 38.503906 L 59.042969 40.960938 C 59.722656 41.398438 60.175781 42.003906 60.40625 42.777344 C 60.757812 43.96875 62.558594 49.828125 62.949219 51.09375 L 62.972656 51.164062 C 63.050781 51.429688 63.132812 51.691406 63.210938 51.957031 C 63.328125 52.324219 63.445312 52.695312 63.546875 53.070312 C 63.789062 53.96875 64.304688 54.664062 65.097656 55.15625 C 67.121094 56.484375 68.128906 57.15625 69.441406 58.03125 L 72.191406 59.859375 L 72.277344 59.917969 L 72.304688 59.9375 C 72.324219 59.949219 72.339844 59.960938 72.351562 59.96875 L 72.359375 60.109375 L 72.566406 60.109375 L 72.648438 60.167969 C 72.703125 60.199219 72.773438 60.246094 72.851562 60.300781 Z M 62.644531 75.464844 " fill-opacity="1" fill-rule="nonzero"/></g></svg>