<svg xmlns="http://www.w3.org/2000/svg" xmlns:xlink="http://www.w3.org/1999/xlink" width="128" zoomAndPan="magnify" viewBox="0 0 96 95.999999" height="128" preserveAspectRatio="xMidYMid meet" version="1.0"><defs><clipPath id="12b2836704"><path d="M 51.28125 -56.257812 L 101.875 -5.664062 L -5.675781 101.886719 L -56.269531 51.296875 Z M 51.28125 -56.257812 " clip-rule="nonzero"/></clipPath><clipPath id="932da15b31"><path d="M 51.28125 -56.257812 L 101.769531 -5.769531 L -5.773438 101.773438 L -56.261719 51.285156 Z M 51.28125 -56.257812 " clip-rule="nonzero"/></clipPath><clipPath id="0e5b58bf8a"><path d="M 17.957031 17.171875 L 77.957031 17.171875 L 77.957031 78.671875 L 17.957031 78.671875 Z M 17.957031 17.171875 " clip-rule="nonzero"/></clipPath></defs><rect x="-9.6" width="115.2" fill="#ffffff" y="-9.6" height="115.199999" fill-opacity="1"/><rect x="-9.6" width="115.2" fill="#ffffff" y="-9.6" height="115.199999" fill-opacity="1"/><rect x="-9.6" width="115.2" fill="#95389e" y="-9.6" height="115.199999" fill-opacity="1"/><g clip-path="url(#12b2836704)"><g clip-path="url(#932da15b31)"><path fill="#a94cb2" d="M 51.28125 -56.257812 L 101.875 -5.664062 L -5.675781 101.886719 L -56.269531 51.296875 Z M 51.28125 -56.257812 " fill-opacity="1" fill-rule="nonzero"/></g></g><g clip-path="url(#0e5b58bf8a)"><path fill="#ffffff" d="M 75.589844 50.191406 L 74.539062 50.191406 L 74.539062 42.519531 C 74.539062 42.207031 74.476562 41.90625 74.359375 41.613281 C 74.238281 41.324219 74.066406 41.070312 73.84375 40.847656 C 73.621094 40.625 73.367188 40.453125 73.074219 40.335938 C 72.785156 40.214844 72.484375 40.152344 72.167969 40.152344 L 70.0625 40.152344 L 70.0625 31.007812 C 70.066406 30.738281 69.972656 30.503906 69.785156 30.3125 L 57.382812 17.695312 C 57.1875 17.472656 56.9375 17.359375 56.640625 17.355469 L 26.230469 17.355469 C 25.957031 17.355469 25.726562 17.453125 25.53125 17.644531 C 25.339844 17.835938 25.242188 18.070312 25.242188 18.339844 L 25.242188 40.171875 L 23.105469 40.171875 C 22.789062 40.171875 22.488281 40.230469 22.199219 40.351562 C 21.90625 40.46875 21.652344 40.640625 21.429688 40.863281 C 21.207031 41.085938 21.035156 41.339844 20.914062 41.628906 C 20.796875 41.921875 20.734375 42.222656 20.734375 42.535156 L 20.734375 53.386719 L 20.355469 53.386719 C 20.042969 53.386719 19.742188 53.445312 19.449219 53.566406 C 19.160156 53.6875 18.902344 53.859375 18.683594 54.078125 C 18.460938 54.300781 18.289062 54.558594 18.167969 54.847656 C 18.046875 55.136719 17.988281 55.4375 17.988281 55.753906 C 17.988281 55.753906 17.988281 55.839844 17.988281 55.886719 L 20.71875 76.167969 C 20.730469 76.476562 20.800781 76.769531 20.925781 77.046875 C 21.050781 77.328125 21.222656 77.574219 21.445312 77.785156 C 21.664062 78 21.917969 78.164062 22.203125 78.277344 C 22.484375 78.390625 22.78125 78.449219 23.089844 78.449219 L 72.183594 78.449219 C 72.492188 78.449219 72.785156 78.390625 73.070312 78.277344 C 73.355469 78.164062 73.605469 78 73.828125 77.789062 C 74.046875 77.578125 74.222656 77.332031 74.347656 77.054688 C 74.472656 76.773438 74.542969 76.484375 74.554688 76.175781 L 77.957031 52.683594 C 77.960938 52.636719 77.960938 52.589844 77.957031 52.542969 C 77.953125 52.230469 77.894531 51.929688 77.773438 51.640625 C 77.652344 51.355469 77.480469 51.101562 77.257812 50.878906 C 77.035156 50.660156 76.78125 50.492188 76.492188 50.371094 C 76.203125 50.253906 75.902344 50.191406 75.589844 50.191406 Z M 22.695312 53.386719 L 22.695312 42.519531 C 22.695312 42.417969 22.734375 42.328125 22.808594 42.253906 C 22.878906 42.179688 22.96875 42.144531 23.074219 42.140625 L 25.210938 42.140625 L 25.210938 53.386719 Z M 51.605469 50.660156 L 49.921875 53.386719 L 27.21875 53.386719 L 27.21875 19.328125 L 55.675781 19.328125 L 55.675781 31.007812 C 55.6875 31.269531 55.78125 31.492188 55.96875 31.675781 C 56.15625 31.859375 56.378906 31.953125 56.640625 31.960938 L 68.074219 31.960938 L 68.074219 50.191406 L 52.480469 50.191406 C 52.113281 50.191406 51.832031 50.34375 51.636719 50.660156 Z M 70.0625 50.191406 L 70.0625 42.140625 L 72.203125 42.140625 C 72.304688 42.144531 72.394531 42.179688 72.46875 42.253906 C 72.539062 42.328125 72.578125 42.417969 72.582031 42.519531 L 72.582031 50.191406 Z M 70.0625 50.191406 " fill-opacity="1" fill-rule="nonzero"/></g><path fill="#ffffff" d="M 33.5 27.851562 L 48.945312 27.851562 C 49.214844 27.851562 49.449219 27.753906 49.640625 27.5625 C 49.832031 27.371094 49.929688 27.136719 49.929688 26.867188 C 49.929688 26.59375 49.832031 26.363281 49.640625 26.167969 C 49.449219 25.976562 49.214844 25.878906 48.945312 25.878906 L 33.5 25.878906 C 33.230469 25.878906 32.996094 25.976562 32.804688 26.167969 C 32.609375 26.363281 32.515625 26.59375 32.515625 26.867188 C 32.515625 27.136719 32.609375 27.371094 32.804688 27.5625 C 32.996094 27.753906 33.230469 27.851562 33.5 27.851562 Z M 33.5 27.851562 " fill-opacity="1" fill-rule="nonzero"/><path fill="#ffffff" d="M 38.964844 45.46875 L 33.5 45.46875 C 33.230469 45.46875 32.996094 45.566406 32.804688 45.757812 C 32.609375 45.949219 32.515625 46.183594 32.515625 46.453125 C 32.515625 46.726562 32.609375 46.960938 32.804688 47.152344 C 32.996094 47.34375 33.230469 47.441406 33.5 47.441406 L 38.964844 47.441406 C 39.238281 47.441406 39.46875 47.34375 39.664062 47.152344 C 39.855469 46.960938 39.953125 46.726562 39.953125 46.453125 C 39.953125 46.183594 39.855469 45.949219 39.664062 45.757812 C 39.46875 45.566406 39.238281 45.46875 38.964844 45.46875 Z M 38.964844 45.46875 " fill-opacity="1" fill-rule="nonzero"/><path fill="#ffffff" d="M 51.019531 45.46875 L 43.667969 45.46875 C 43.398438 45.46875 43.164062 45.566406 42.972656 45.757812 C 42.777344 45.949219 42.683594 46.183594 42.683594 46.453125 C 42.683594 46.726562 42.777344 46.960938 42.972656 47.152344 C 43.164062 47.34375 43.398438 47.441406 43.667969 47.441406 L 51.019531 47.441406 C 51.292969 47.441406 51.523438 47.34375 51.71875 47.152344 C 51.910156 46.960938 52.007812 46.726562 52.007812 46.453125 C 52.007812 46.183594 51.910156 45.949219 51.71875 45.757812 C 51.523438 45.566406 51.292969 45.46875 51.019531 45.46875 Z M 51.019531 45.46875 " fill-opacity="1" fill-rule="nonzero"/><path fill="#ffffff" d="M 33.5 32.285156 L 50.964844 32.285156 C 51.238281 32.285156 51.46875 32.1875 51.664062 31.996094 C 51.855469 31.804688 51.953125 31.570312 51.953125 31.296875 C 51.953125 31.027344 51.855469 30.792969 51.664062 30.601562 C 51.46875 30.410156 51.238281 30.3125 50.964844 30.3125 L 33.5 30.3125 C 33.230469 30.3125 32.996094 30.410156 32.804688 30.601562 C 32.609375 30.792969 32.515625 31.027344 32.515625 31.296875 C 32.515625 31.570312 32.609375 31.804688 32.804688 31.996094 C 32.996094 32.1875 33.230469 32.285156 33.5 32.285156 Z M 33.5 32.285156 " fill-opacity="1" fill-rule="nonzero"/><path fill="#ffffff" d="M 57.429688 40.53125 L 33.5 40.53125 C 33.230469 40.53125 32.996094 40.628906 32.804688 40.820312 C 32.609375 41.015625 32.515625 41.246094 32.515625 41.519531 C 32.515625 41.789062 32.609375 42.023438 32.804688 42.214844 C 32.996094 42.40625 33.230469 42.503906 33.5 42.503906 L 57.429688 42.503906 C 57.703125 42.503906 57.933594 42.40625 58.128906 42.214844 C 58.320312 42.023438 58.417969 41.789062 58.417969 41.519531 C 58.417969 41.246094 58.320312 41.015625 58.128906 40.820312 C 57.933594 40.628906 57.703125 40.53125 57.429688 40.53125 Z M 57.429688 40.53125 " fill-opacity="1" fill-rule="nonzero"/><path fill="#ffffff" d="M 62.679688 35.476562 L 33.46875 35.476562 C 33.339844 35.476562 33.210938 35.503906 33.089844 35.550781 C 32.96875 35.601562 32.863281 35.671875 32.769531 35.765625 C 32.679688 35.859375 32.605469 35.964844 32.558594 36.085938 C 32.507812 36.207031 32.480469 36.332031 32.480469 36.464844 C 32.480469 36.59375 32.507812 36.71875 32.558594 36.839844 C 32.605469 36.960938 32.679688 37.070312 32.769531 37.160156 C 32.863281 37.253906 32.96875 37.324219 33.089844 37.375 C 33.210938 37.425781 33.339844 37.449219 33.46875 37.449219 L 62.679688 37.449219 C 62.953125 37.449219 63.183594 37.351562 63.378906 37.160156 C 63.570312 36.96875 63.667969 36.734375 63.667969 36.464844 C 63.667969 36.191406 63.570312 35.957031 63.378906 35.765625 C 63.183594 35.574219 62.953125 35.476562 62.679688 35.476562 Z M 62.679688 35.476562 " fill-opacity="1" fill-rule="nonzero"/></svg>