<svg xmlns="http://www.w3.org/2000/svg" xmlns:xlink="http://www.w3.org/1999/xlink" width="128" zoomAndPan="magnify" viewBox="0 0 96 95.999999" height="128" preserveAspectRatio="xMidYMid meet" version="1.0"><defs><clipPath id="5cc49f23c7"><path d="M 51.28125 -56.257812 L 101.875 -5.664062 L -5.675781 101.886719 L -56.269531 51.296875 Z M 51.28125 -56.257812 " clip-rule="nonzero"/></clipPath><clipPath id="d277528ec3"><path d="M 51.28125 -56.257812 L 101.769531 -5.769531 L -5.773438 101.773438 L -56.261719 51.285156 Z M 51.28125 -56.257812 " clip-rule="nonzero"/></clipPath><clipPath id="60d1dde083"><path d="M 36 17.203125 L 76 17.203125 L 76 46 L 36 46 Z M 36 17.203125 " clip-rule="nonzero"/></clipPath><clipPath id="9c3906188f"><path d="M 39 46 L 78.699219 46 L 78.699219 78.703125 L 39 78.703125 Z M 39 46 " clip-rule="nonzero"/></clipPath><clipPath id="90687b0990"><path d="M 17.203125 33 L 57 33 L 57 67 L 17.203125 67 Z M 17.203125 33 " clip-rule="nonzero"/></clipPath></defs><rect x="-9.6" width="115.2" fill="#ffffff" y="-9.6" height="115.199999" fill-opacity="1"/><rect x="-9.6" width="115.2" fill="#95389e" y="-9.6" height="115.199999" fill-opacity="1"/><g clip-path="url(#5cc49f23c7)"><g clip-path="url(#d277528ec3)"><path fill="#a94cb2" d="M 51.28125 -56.257812 L 101.875 -5.664062 L -5.675781 101.886719 L -56.269531 51.296875 Z M 51.28125 -56.257812 " fill-opacity="1" fill-rule="nonzero"/></g></g><g clip-path="url(#60d1dde083)"><path fill="#ffffff" d="M 59.929688 45.15625 C 59.574219 45.160156 59.261719 45.042969 58.992188 44.804688 C 58.851562 44.683594 58.742188 44.535156 58.660156 44.367188 C 58.578125 44.199219 58.535156 44.023438 58.523438 43.835938 C 58.511719 43.652344 58.539062 43.46875 58.601562 43.292969 C 58.664062 43.117188 58.757812 42.960938 58.882812 42.820312 L 60.125 41.421875 C 60.40625 41.113281 60.753906 40.960938 61.171875 40.960938 L 71.710938 40.960938 C 71.898438 40.960938 72.074219 40.925781 72.246094 40.855469 C 72.417969 40.785156 72.570312 40.683594 72.699219 40.554688 C 72.832031 40.421875 72.933594 40.269531 73.003906 40.101562 C 73.074219 39.929688 73.109375 39.75 73.109375 39.566406 L 73.109375 21.394531 C 73.109375 21.210938 73.074219 21.03125 73.003906 20.859375 C 72.933594 20.6875 72.832031 20.535156 72.699219 20.40625 C 72.570312 20.273438 72.417969 20.175781 72.246094 20.101562 C 72.074219 20.03125 71.898438 19.996094 71.710938 19.996094 L 40.960938 19.996094 C 40.777344 19.996094 40.597656 20.03125 40.425781 20.101562 C 40.257812 20.175781 40.105469 20.273438 39.972656 20.40625 C 39.84375 20.535156 39.742188 20.6875 39.671875 20.859375 C 39.601562 21.03125 39.566406 21.210938 39.566406 21.394531 L 39.566406 31.179688 C 39.566406 31.363281 39.53125 31.542969 39.457031 31.714844 C 39.386719 31.882812 39.285156 32.035156 39.15625 32.167969 C 39.023438 32.296875 38.875 32.398438 38.703125 32.46875 C 38.53125 32.539062 38.351562 32.578125 38.167969 32.578125 C 37.980469 32.578125 37.804688 32.539062 37.632812 32.46875 C 37.460938 32.398438 37.308594 32.296875 37.179688 32.167969 C 37.046875 32.035156 36.945312 31.882812 36.875 31.714844 C 36.804688 31.542969 36.769531 31.363281 36.769531 31.179688 L 36.769531 21.394531 C 36.769531 21.117188 36.796875 20.847656 36.851562 20.578125 C 36.902344 20.304688 36.984375 20.042969 37.089844 19.789062 C 37.195312 19.535156 37.324219 19.292969 37.476562 19.066406 C 37.628906 18.835938 37.804688 18.625 37.996094 18.429688 C 38.191406 18.234375 38.402344 18.0625 38.632812 17.90625 C 38.863281 17.753906 39.101562 17.625 39.359375 17.519531 C 39.613281 17.414062 39.875 17.335938 40.144531 17.28125 C 40.414062 17.226562 40.6875 17.203125 40.960938 17.203125 L 71.710938 17.203125 C 71.988281 17.203125 72.261719 17.226562 72.53125 17.28125 C 72.800781 17.335938 73.0625 17.414062 73.316406 17.519531 C 73.570312 17.625 73.8125 17.753906 74.042969 17.90625 C 74.269531 18.0625 74.484375 18.234375 74.675781 18.429688 C 74.871094 18.625 75.046875 18.835938 75.199219 19.066406 C 75.351562 19.292969 75.480469 19.535156 75.585938 19.789062 C 75.691406 20.042969 75.769531 20.304688 75.824219 20.578125 C 75.878906 20.847656 75.90625 21.117188 75.90625 21.394531 L 75.90625 39.566406 C 75.90625 39.839844 75.878906 40.113281 75.824219 40.382812 C 75.769531 40.652344 75.691406 40.914062 75.585938 41.167969 C 75.480469 41.425781 75.351562 41.664062 75.199219 41.894531 C 75.046875 42.125 74.871094 42.335938 74.675781 42.53125 C 74.484375 42.722656 74.269531 42.898438 74.042969 43.050781 C 73.8125 43.203125 73.570312 43.332031 73.316406 43.4375 C 73.0625 43.542969 72.800781 43.625 72.53125 43.675781 C 72.261719 43.730469 71.988281 43.757812 71.710938 43.757812 L 61.800781 43.757812 L 60.964844 44.695312 C 60.6875 45 60.34375 45.15625 59.929688 45.15625 Z M 59.929688 45.15625 " fill-opacity="1" fill-rule="nonzero"/></g><g clip-path="url(#9c3906188f)"><path fill="#ffffff" d="M 58.980469 78.703125 C 58.5625 78.703125 58.210938 78.550781 57.929688 78.238281 L 53.359375 73.109375 L 43.757812 73.109375 C 43.484375 73.109375 43.210938 73.082031 42.941406 73.03125 C 42.667969 72.976562 42.40625 72.894531 42.152344 72.792969 C 41.898438 72.6875 41.65625 72.554688 41.429688 72.402344 C 41.199219 72.25 40.988281 72.078125 40.792969 71.882812 C 40.597656 71.6875 40.425781 71.476562 40.269531 71.246094 C 40.117188 71.019531 39.988281 70.777344 39.882812 70.523438 C 39.777344 70.265625 39.699219 70.003906 39.644531 69.734375 C 39.589844 69.464844 39.566406 69.191406 39.566406 68.917969 L 39.566406 50.746094 C 39.566406 50.472656 39.589844 50.199219 39.644531 49.929688 C 39.699219 49.660156 39.777344 49.394531 39.882812 49.140625 C 39.988281 48.886719 40.117188 48.644531 40.269531 48.417969 C 40.425781 48.1875 40.597656 47.976562 40.792969 47.78125 C 40.988281 47.585938 41.199219 47.414062 41.429688 47.261719 C 41.65625 47.105469 41.898438 46.976562 42.152344 46.871094 C 42.40625 46.765625 42.667969 46.6875 42.941406 46.632812 C 43.210938 46.582031 43.484375 46.554688 43.757812 46.554688 L 74.507812 46.554688 C 74.785156 46.554688 75.054688 46.582031 75.324219 46.632812 C 75.597656 46.6875 75.859375 46.765625 76.113281 46.871094 C 76.367188 46.976562 76.609375 47.105469 76.835938 47.261719 C 77.066406 47.414062 77.277344 47.585938 77.472656 47.78125 C 77.667969 47.976562 77.839844 48.1875 77.996094 48.417969 C 78.148438 48.644531 78.277344 48.886719 78.382812 49.140625 C 78.488281 49.394531 78.566406 49.660156 78.621094 49.929688 C 78.675781 50.199219 78.699219 50.472656 78.699219 50.746094 L 78.699219 68.917969 C 78.699219 69.191406 78.675781 69.464844 78.621094 69.734375 C 78.566406 70.003906 78.488281 70.265625 78.382812 70.523438 C 78.277344 70.777344 78.148438 71.019531 77.996094 71.246094 C 77.839844 71.476562 77.667969 71.6875 77.472656 71.882812 C 77.277344 72.078125 77.066406 72.25 76.835938 72.402344 C 76.609375 72.554688 76.367188 72.6875 76.113281 72.792969 C 75.859375 72.894531 75.597656 72.976562 75.324219 73.03125 C 75.054688 73.082031 74.785156 73.109375 74.507812 73.109375 L 64.597656 73.109375 L 60.011719 78.238281 C 59.738281 78.546875 59.390625 78.699219 58.980469 78.703125 Z M 43.757812 49.347656 C 43.574219 49.347656 43.394531 49.382812 43.222656 49.457031 C 43.050781 49.527344 42.902344 49.628906 42.769531 49.757812 C 42.636719 49.890625 42.539062 50.039062 42.464844 50.210938 C 42.394531 50.382812 42.359375 50.5625 42.359375 50.746094 L 42.359375 68.917969 C 42.359375 69.101562 42.394531 69.28125 42.464844 69.453125 C 42.539062 69.625 42.636719 69.773438 42.769531 69.90625 C 42.902344 70.035156 43.050781 70.136719 43.222656 70.207031 C 43.394531 70.28125 43.574219 70.316406 43.757812 70.316406 L 53.976562 70.316406 C 54.394531 70.3125 54.742188 70.464844 55.023438 70.777344 L 58.980469 75.207031 L 62.921875 70.777344 C 63.203125 70.464844 63.550781 70.3125 63.96875 70.316406 L 74.507812 70.316406 C 74.691406 70.316406 74.871094 70.28125 75.042969 70.207031 C 75.214844 70.136719 75.367188 70.035156 75.496094 69.90625 C 75.628906 69.773438 75.726562 69.625 75.800781 69.453125 C 75.871094 69.28125 75.90625 69.101562 75.90625 68.917969 L 75.90625 50.746094 C 75.90625 50.5625 75.871094 50.382812 75.800781 50.210938 C 75.726562 50.039062 75.628906 49.890625 75.496094 49.757812 C 75.367188 49.628906 75.214844 49.527344 75.042969 49.457031 C 74.871094 49.382812 74.691406 49.347656 74.507812 49.347656 Z M 43.757812 49.347656 " fill-opacity="1" fill-rule="nonzero"/></g><path fill="#ffffff" d="M 59.132812 70.316406 C 58.492188 70.316406 57.855469 70.253906 57.222656 70.125 C 56.59375 70 55.980469 69.816406 55.390625 69.570312 C 54.796875 69.324219 54.230469 69.023438 53.695312 68.664062 C 53.164062 68.308594 52.667969 67.902344 52.214844 67.449219 C 51.761719 66.996094 51.355469 66.5 50.996094 65.964844 C 50.640625 65.433594 50.339844 64.867188 50.09375 64.273438 C 49.847656 63.679688 49.664062 63.070312 49.535156 62.441406 C 49.410156 61.808594 49.347656 61.171875 49.347656 60.53125 C 49.347656 59.886719 49.410156 59.253906 49.535156 58.621094 C 49.664062 57.992188 49.847656 57.378906 50.09375 56.785156 C 50.339844 56.191406 50.640625 55.628906 50.996094 55.09375 C 51.355469 54.5625 51.761719 54.066406 52.214844 53.613281 C 52.667969 53.15625 53.164062 52.753906 53.695312 52.394531 C 54.230469 52.039062 54.796875 51.738281 55.390625 51.492188 C 55.980469 51.246094 56.59375 51.058594 57.222656 50.933594 C 57.855469 50.808594 58.492188 50.746094 59.132812 50.746094 C 59.777344 50.746094 60.410156 50.808594 61.042969 50.933594 C 61.671875 51.058594 62.285156 51.246094 62.878906 51.492188 C 63.472656 51.738281 64.035156 52.039062 64.570312 52.394531 C 65.101562 52.753906 65.597656 53.15625 66.050781 53.613281 C 66.503906 54.066406 66.910156 54.5625 67.269531 55.09375 C 67.625 55.628906 67.925781 56.191406 68.171875 56.785156 C 68.417969 57.378906 68.605469 57.992188 68.730469 58.621094 C 68.855469 59.253906 68.917969 59.886719 68.917969 60.53125 C 68.917969 61.171875 68.855469 61.808594 68.730469 62.441406 C 68.605469 63.070312 68.417969 63.679688 68.171875 64.273438 C 67.925781 64.867188 67.625 65.433594 67.269531 65.964844 C 66.910156 66.5 66.503906 66.996094 66.050781 67.449219 C 65.597656 67.902344 65.101562 68.308594 64.570312 68.664062 C 64.035156 69.023438 63.472656 69.324219 62.878906 69.570312 C 62.285156 69.816406 61.671875 70 61.042969 70.125 C 60.410156 70.253906 59.777344 70.316406 59.132812 70.316406 Z M 59.132812 53.542969 C 58.675781 53.542969 58.21875 53.585938 57.769531 53.675781 C 57.320312 53.765625 56.882812 53.898438 56.457031 54.074219 C 56.035156 54.25 55.632812 54.464844 55.25 54.71875 C 54.867188 54.976562 54.515625 55.265625 54.191406 55.589844 C 53.867188 55.914062 53.578125 56.265625 53.320312 56.648438 C 53.066406 57.03125 52.851562 57.433594 52.675781 57.855469 C 52.5 58.28125 52.367188 58.71875 52.277344 59.167969 C 52.1875 59.617188 52.144531 60.070312 52.144531 60.53125 C 52.144531 60.988281 52.1875 61.445312 52.277344 61.894531 C 52.367188 62.34375 52.5 62.78125 52.675781 63.207031 C 52.851562 63.628906 53.066406 64.03125 53.320312 64.414062 C 53.578125 64.796875 53.867188 65.148438 54.191406 65.472656 C 54.515625 65.796875 54.867188 66.085938 55.25 66.339844 C 55.632812 66.597656 56.035156 66.8125 56.457031 66.988281 C 56.882812 67.164062 57.320312 67.296875 57.769531 67.386719 C 58.21875 67.472656 58.675781 67.519531 59.132812 67.519531 C 59.59375 67.519531 60.046875 67.472656 60.496094 67.386719 C 60.945312 67.296875 61.382812 67.164062 61.808594 66.988281 C 62.230469 66.8125 62.632812 66.597656 63.015625 66.339844 C 63.398438 66.085938 63.75 65.796875 64.074219 65.472656 C 64.398438 65.148438 64.6875 64.796875 64.945312 64.414062 C 65.199219 64.03125 65.414062 63.628906 65.589844 63.207031 C 65.765625 62.78125 65.898438 62.34375 65.988281 61.894531 C 66.078125 61.445312 66.121094 60.988281 66.121094 60.53125 C 66.121094 60.070312 66.078125 59.617188 65.988281 59.167969 C 65.898438 58.71875 65.765625 58.28125 65.589844 57.855469 C 65.414062 57.433594 65.199219 57.03125 64.945312 56.648438 C 64.6875 56.265625 64.398438 55.914062 64.074219 55.589844 C 63.75 55.265625 63.398438 54.976562 63.015625 54.71875 C 62.632812 54.464844 62.230469 54.25 61.808594 54.074219 C 61.382812 53.898438 60.945312 53.765625 60.496094 53.675781 C 60.046875 53.585938 59.59375 53.542969 59.132812 53.542969 Z M 59.132812 53.542969 " fill-opacity="1" fill-rule="nonzero"/><path fill="#ffffff" d="M 59.132812 65.421875 C 58.859375 65.421875 58.585938 65.394531 58.316406 65.34375 C 58.042969 65.289062 57.78125 65.207031 57.527344 65.105469 C 57.273438 65 57.03125 64.867188 56.804688 64.714844 C 56.574219 64.5625 56.363281 64.390625 56.167969 64.195312 C 55.972656 64 55.800781 63.789062 55.644531 63.558594 C 55.492188 63.332031 55.363281 63.089844 55.257812 62.835938 C 55.152344 62.578125 55.074219 62.316406 55.019531 62.046875 C 54.964844 61.777344 54.941406 61.503906 54.941406 61.230469 C 54.941406 61.042969 54.976562 60.867188 55.046875 60.695312 C 55.117188 60.523438 55.21875 60.371094 55.347656 60.242188 C 55.480469 60.109375 55.632812 60.007812 55.800781 59.9375 C 55.972656 59.867188 56.152344 59.832031 56.335938 59.832031 C 56.523438 59.832031 56.703125 59.867188 56.871094 59.9375 C 57.042969 60.007812 57.195312 60.109375 57.324219 60.242188 C 57.457031 60.371094 57.558594 60.523438 57.628906 60.695312 C 57.699219 60.867188 57.734375 61.042969 57.734375 61.230469 C 57.734375 61.414062 57.769531 61.59375 57.839844 61.765625 C 57.914062 61.9375 58.011719 62.085938 58.144531 62.21875 C 58.277344 62.347656 58.425781 62.449219 58.597656 62.519531 C 58.769531 62.59375 58.949219 62.628906 59.132812 62.628906 C 59.316406 62.628906 59.496094 62.59375 59.667969 62.519531 C 59.839844 62.449219 59.992188 62.347656 60.121094 62.21875 C 60.253906 62.085938 60.351562 61.9375 60.425781 61.765625 C 60.496094 61.59375 60.53125 61.414062 60.53125 61.230469 C 60.53125 61.042969 60.566406 60.867188 60.636719 60.695312 C 60.707031 60.523438 60.808594 60.371094 60.941406 60.242188 C 61.070312 60.109375 61.222656 60.007812 61.394531 59.9375 C 61.566406 59.867188 61.742188 59.832031 61.929688 59.832031 C 62.113281 59.832031 62.292969 59.867188 62.464844 59.9375 C 62.632812 60.007812 62.785156 60.109375 62.917969 60.242188 C 63.046875 60.371094 63.148438 60.523438 63.21875 60.695312 C 63.289062 60.867188 63.324219 61.042969 63.324219 61.230469 C 63.324219 61.503906 63.300781 61.777344 63.246094 62.046875 C 63.191406 62.316406 63.113281 62.578125 63.007812 62.835938 C 62.902344 63.089844 62.773438 63.332031 62.621094 63.558594 C 62.464844 63.789062 62.292969 64 62.097656 64.195312 C 61.902344 64.390625 61.691406 64.5625 61.460938 64.714844 C 61.234375 64.867188 60.992188 65 60.738281 65.105469 C 60.484375 65.207031 60.222656 65.289062 59.949219 65.34375 C 59.679688 65.394531 59.410156 65.421875 59.132812 65.421875 Z M 59.132812 65.421875 " fill-opacity="1" fill-rule="nonzero"/><g clip-path="url(#90687b0990)"><path fill="#ffffff" d="M 36.617188 66.121094 C 36.203125 66.121094 35.859375 65.96875 35.582031 65.660156 L 30.984375 60.53125 L 21.394531 60.53125 C 21.117188 60.53125 20.847656 60.503906 20.578125 60.449219 C 20.304688 60.394531 20.042969 60.316406 19.789062 60.210938 C 19.535156 60.105469 19.292969 59.976562 19.066406 59.824219 C 18.835938 59.671875 18.625 59.496094 18.429688 59.300781 C 18.234375 59.109375 18.0625 58.894531 17.90625 58.667969 C 17.753906 58.4375 17.625 58.195312 17.519531 57.941406 C 17.414062 57.6875 17.335938 57.425781 17.28125 57.15625 C 17.226562 56.886719 17.203125 56.613281 17.203125 56.335938 L 17.203125 38.167969 C 17.203125 37.890625 17.226562 37.617188 17.28125 37.347656 C 17.335938 37.078125 17.414062 36.816406 17.519531 36.5625 C 17.625 36.308594 17.753906 36.066406 17.90625 35.835938 C 18.0625 35.609375 18.234375 35.398438 18.429688 35.203125 C 18.625 35.007812 18.835938 34.832031 19.066406 34.679688 C 19.292969 34.527344 19.535156 34.398438 19.789062 34.292969 C 20.042969 34.1875 20.304688 34.109375 20.578125 34.054688 C 20.847656 34 21.117188 33.972656 21.394531 33.972656 L 52.144531 33.972656 C 52.417969 33.972656 52.691406 34 52.960938 34.054688 C 53.234375 34.109375 53.496094 34.1875 53.75 34.292969 C 54.003906 34.398438 54.246094 34.527344 54.472656 34.679688 C 54.703125 34.832031 54.914062 35.007812 55.109375 35.203125 C 55.304688 35.398438 55.476562 35.609375 55.628906 35.835938 C 55.785156 36.066406 55.914062 36.308594 56.019531 36.5625 C 56.125 36.816406 56.203125 37.078125 56.257812 37.347656 C 56.3125 37.617188 56.335938 37.890625 56.335938 38.167969 L 56.335938 43.757812 C 56.335938 43.941406 56.300781 44.121094 56.230469 44.292969 C 56.160156 44.464844 56.058594 44.617188 55.929688 44.746094 C 55.796875 44.878906 55.644531 44.976562 55.476562 45.050781 C 55.304688 45.121094 55.125 45.15625 54.941406 45.15625 C 54.753906 45.15625 54.574219 45.121094 54.40625 45.050781 C 54.234375 44.976562 54.082031 44.878906 53.953125 44.746094 C 53.820312 44.617188 53.71875 44.464844 53.648438 44.292969 C 53.578125 44.121094 53.542969 43.941406 53.542969 43.757812 L 53.542969 38.167969 C 53.542969 37.980469 53.507812 37.804688 53.4375 37.632812 C 53.363281 37.460938 53.265625 37.308594 53.132812 37.179688 C 53 37.046875 52.851562 36.945312 52.679688 36.875 C 52.507812 36.804688 52.328125 36.769531 52.144531 36.769531 L 21.394531 36.769531 C 21.210938 36.769531 21.03125 36.804688 20.859375 36.875 C 20.6875 36.945312 20.535156 37.046875 20.40625 37.179688 C 20.273438 37.308594 20.175781 37.460938 20.101562 37.632812 C 20.03125 37.804688 19.996094 37.980469 19.996094 38.167969 L 19.996094 56.335938 C 19.996094 56.523438 20.03125 56.703125 20.101562 56.871094 C 20.175781 57.042969 20.273438 57.195312 20.40625 57.324219 C 20.535156 57.457031 20.6875 57.558594 20.859375 57.628906 C 21.03125 57.699219 21.210938 57.734375 21.394531 57.734375 L 31.613281 57.734375 C 32.03125 57.730469 32.378906 57.886719 32.660156 58.195312 L 37.664062 63.789062 C 37.789062 63.925781 37.882812 64.082031 37.945312 64.257812 C 38.007812 64.433594 38.03125 64.617188 38.023438 64.804688 C 38.011719 64.988281 37.964844 65.167969 37.882812 65.335938 C 37.804688 65.503906 37.691406 65.648438 37.550781 65.773438 C 37.285156 66.007812 36.972656 66.125 36.617188 66.121094 Z M 36.617188 66.121094 " fill-opacity="1" fill-rule="nonzero"/></g><path fill="#ffffff" d="M 63.324219 25.585938 L 45.15625 25.585938 C 44.96875 25.585938 44.792969 25.550781 44.621094 25.480469 C 44.449219 25.410156 44.296875 25.308594 44.167969 25.179688 C 44.035156 25.046875 43.933594 24.894531 43.863281 24.726562 C 43.792969 24.554688 43.757812 24.375 43.757812 24.191406 C 43.757812 24.003906 43.792969 23.828125 43.863281 23.65625 C 43.933594 23.484375 44.035156 23.332031 44.167969 23.203125 C 44.296875 23.070312 44.449219 22.96875 44.621094 22.898438 C 44.792969 22.828125 44.96875 22.792969 45.15625 22.792969 L 63.324219 22.792969 C 63.511719 22.792969 63.691406 22.828125 63.859375 22.898438 C 64.03125 22.96875 64.183594 23.070312 64.316406 23.203125 C 64.445312 23.332031 64.546875 23.484375 64.617188 23.65625 C 64.6875 23.828125 64.722656 24.003906 64.722656 24.191406 C 64.722656 24.375 64.6875 24.554688 64.617188 24.726562 C 64.546875 24.894531 64.445312 25.046875 64.316406 25.179688 C 64.183594 25.308594 64.03125 25.410156 63.859375 25.480469 C 63.691406 25.550781 63.511719 25.585938 63.324219 25.585938 Z M 63.324219 25.585938 " fill-opacity="1" fill-rule="nonzero"/><path fill="#ffffff" d="M 56.335938 31.179688 L 45.15625 31.179688 C 44.96875 31.179688 44.792969 31.144531 44.621094 31.070312 C 44.449219 31 44.296875 30.898438 44.167969 30.769531 C 44.035156 30.636719 43.933594 30.488281 43.863281 30.316406 C 43.792969 30.144531 43.757812 29.964844 43.757812 29.78125 C 43.757812 29.59375 43.792969 29.417969 43.863281 29.246094 C 43.933594 29.074219 44.035156 28.921875 44.167969 28.792969 C 44.296875 28.660156 44.449219 28.558594 44.621094 28.488281 C 44.792969 28.417969 44.96875 28.382812 45.15625 28.382812 L 56.335938 28.382812 C 56.523438 28.382812 56.703125 28.417969 56.871094 28.488281 C 57.042969 28.558594 57.195312 28.660156 57.324219 28.792969 C 57.457031 28.921875 57.558594 29.074219 57.628906 29.246094 C 57.699219 29.417969 57.734375 29.59375 57.734375 29.78125 C 57.734375 29.964844 57.699219 30.144531 57.628906 30.316406 C 57.558594 30.488281 57.457031 30.636719 57.324219 30.769531 C 57.195312 30.898438 57.042969 31 56.871094 31.070312 C 56.703125 31.144531 56.523438 31.179688 56.335938 31.179688 Z M 56.335938 31.179688 " fill-opacity="1" fill-rule="nonzero"/><path fill="#ffffff" d="M 36.769531 57.289062 C 36.382812 57.289062 36.050781 57.15625 35.777344 56.882812 L 29.90625 51.027344 C 26.214844 47.335938 26.578125 43.617188 28.507812 41.730469 C 30.4375 39.84375 33.414062 39.566406 36.769531 42.277344 C 37.574219 41.542969 38.496094 41.015625 39.535156 40.691406 C 40.574219 40.371094 41.632812 40.28125 42.710938 40.429688 C 43.472656 40.582031 44.15625 40.90625 44.753906 41.402344 C 45.355469 41.898438 45.800781 42.503906 46.09375 43.226562 C 46.160156 43.398438 46.195312 43.578125 46.191406 43.765625 C 46.1875 43.949219 46.152344 44.128906 46.078125 44.296875 C 46.003906 44.46875 45.902344 44.617188 45.769531 44.746094 C 45.632812 44.875 45.480469 44.976562 45.308594 45.042969 C 45.136719 45.113281 44.957031 45.144531 44.773438 45.144531 C 44.585938 45.140625 44.410156 45.101562 44.238281 45.03125 C 44.066406 44.957031 43.917969 44.851562 43.789062 44.71875 C 43.660156 44.585938 43.5625 44.433594 43.492188 44.261719 C 43.375 43.964844 43.191406 43.71875 42.941406 43.523438 C 42.691406 43.324219 42.410156 43.203125 42.09375 43.15625 C 41.253906 43.128906 40.449219 43.292969 39.683594 43.644531 C 38.921875 43.996094 38.273438 44.5 37.746094 45.15625 C 37.617188 45.289062 37.464844 45.390625 37.292969 45.460938 C 37.121094 45.535156 36.941406 45.570312 36.753906 45.570312 C 36.570312 45.570312 36.390625 45.535156 36.21875 45.460938 C 36.046875 45.390625 35.894531 45.289062 35.761719 45.15625 C 33.539062 42.933594 31.402344 42.75 30.4375 43.757812 C 29.472656 44.765625 29.65625 46.859375 31.835938 49.082031 L 37.746094 54.941406 C 37.878906 55.070312 37.980469 55.222656 38.054688 55.394531 C 38.125 55.566406 38.160156 55.746094 38.160156 55.933594 C 38.160156 56.117188 38.125 56.296875 38.054688 56.46875 C 37.980469 56.640625 37.878906 56.792969 37.746094 56.925781 C 37.46875 57.175781 37.144531 57.296875 36.769531 57.289062 Z M 36.769531 57.289062 " fill-opacity="1" fill-rule="nonzero"/></svg>