<svg xmlns="http://www.w3.org/2000/svg" xmlns:xlink="http://www.w3.org/1999/xlink" width="128" zoomAndPan="magnify" viewBox="0 0 96 95.999999" height="128" preserveAspectRatio="xMidYMid meet" version="1.0"><defs><clipPath id="b159015632"><path d="M 51.28125 -56.257812 L 101.875 -5.664062 L -5.675781 101.886719 L -56.269531 51.296875 Z M 51.28125 -56.257812 " clip-rule="nonzero"/></clipPath><clipPath id="0e6d72729c"><path d="M 51.28125 -56.257812 L 101.769531 -5.769531 L -5.773438 101.773438 L -56.261719 51.285156 Z M 51.28125 -56.257812 " clip-rule="nonzero"/></clipPath><clipPath id="7f62ddf027"><path d="M 17.175781 23.800781 L 78.675781 23.800781 L 78.675781 72.550781 L 17.175781 72.550781 Z M 17.175781 23.800781 " clip-rule="nonzero"/></clipPath></defs><rect x="-9.6" width="115.2" fill="#ffffff" y="-9.6" height="115.199999" fill-opacity="1"/><rect x="-9.6" width="115.2" fill="#95389e" y="-9.6" height="115.199999" fill-opacity="1"/><g clip-path="url(#b159015632)"><g clip-path="url(#0e6d72729c)"><path fill="#a94cb2" d="M 51.28125 -56.257812 L 101.875 -5.664062 L -5.675781 101.886719 L -56.269531 51.296875 Z M 51.28125 -56.257812 " fill-opacity="1" fill-rule="nonzero"/></g></g><g clip-path="url(#7f62ddf027)"><path fill="#ffffff" d="M 47.925781 23.800781 C 38.976562 23.800781 31.054688 24.738281 26.238281 25.464844 C 22.292969 26.050781 19.15625 29.167969 18.4375 33.167969 C 17.820312 36.664062 17.203125 41.773438 17.203125 48.175781 C 17.203125 54.582031 17.820312 59.6875 18.4375 63.1875 C 19.15625 67.183594 22.292969 70.285156 26.238281 70.890625 C 31.074219 71.617188 39.027344 72.550781 47.925781 72.550781 C 56.820312 72.550781 64.757812 71.617188 69.59375 70.890625 L 69.609375 70.890625 C 73.554688 70.300781 76.691406 67.183594 77.410156 63.1875 C 78.027344 59.671875 78.644531 54.566406 78.644531 48.175781 C 78.644531 41.773438 78.027344 36.664062 77.394531 33.167969 C 76.691406 29.167969 73.554688 26.050781 69.609375 25.464844 C 64.792969 24.738281 56.875 23.800781 47.925781 23.800781 Z M 47.925781 28.234375 C 56.566406 28.234375 64.296875 29.132812 68.960938 29.84375 C 71.015625 30.15625 72.679688 31.78125 73.074219 33.945312 C 73.65625 37.21875 74.257812 42.066406 74.257812 48.175781 C 74.257812 54.289062 73.65625 59.136719 73.089844 62.390625 C 72.695312 64.570312 71.035156 66.199219 68.960938 66.511719 C 64.261719 67.203125 56.511719 68.121094 47.925781 68.121094 C 39.335938 68.121094 31.570312 67.203125 26.890625 66.511719 C 24.832031 66.199219 23.152344 64.570312 22.757812 62.390625 C 22.191406 59.117188 21.59375 54.289062 21.59375 48.175781 C 21.59375 42.046875 22.191406 37.21875 22.757812 33.945312 C 23.152344 31.78125 24.816406 30.15625 26.871094 29.859375 L 26.890625 29.859375 C 31.550781 29.152344 39.285156 28.234375 47.925781 28.234375 Z M 39.148438 37.097656 L 39.148438 59.257812 L 61.089844 48.175781 Z M 39.148438 37.097656 " fill-opacity="1" fill-rule="nonzero"/></g></svg>