<svg xmlns="http://www.w3.org/2000/svg" xmlns:xlink="http://www.w3.org/1999/xlink" width="512" zoomAndPan="magnify" viewBox="0 0 384 383.999986" height="512" preserveAspectRatio="xMidYMid meet" version="1.0"><defs><g/><clipPath id="5f24f514d0"><path d="M 211 87.503906 L 217 87.503906 L 217 182.003906 L 211 182.003906 Z M 211 87.503906 " clip-rule="nonzero"/></clipPath><clipPath id="b7085b0033"><path d="M 357 124 L 362.417969 124 L 362.417969 146 L 357 146 Z M 357 124 " clip-rule="nonzero"/></clipPath><clipPath id="cf387529c4"><path d="M 301.292969 302.257812 L 368.0625 302.257812 L 368.0625 365.921875 L 301.292969 365.921875 Z M 301.292969 302.257812 " clip-rule="nonzero"/></clipPath></defs><rect x="-38.4" width="460.8" fill="#ffffff" y="-38.399999" height="460.799983" fill-opacity="1"/><rect x="-38.4" width="460.8" fill="#ffffff" y="-38.399999" height="460.799983" fill-opacity="1"/><rect x="-38.4" width="460.8" fill="#95389e" y="-38.399999" height="460.799983" fill-opacity="1"/><g clip-path="url(#5f24f514d0)"><path fill="#ffffff" d="M 213.777344 87.503906 C 215.222656 87.503906 216.402344 88.679688 216.402344 90.128906 L 216.402344 179.378906 C 216.402344 180.828125 215.222656 182.003906 213.777344 182.003906 C 212.324219 182.003906 211.152344 180.828125 211.152344 179.378906 L 211.152344 90.128906 C 211.152344 88.679688 212.324219 87.503906 213.777344 87.503906 Z M 213.777344 87.503906 " fill-opacity="1" fill-rule="evenodd"/></g><path fill="#ffffff" d="M 198.921875 95.902344 C 200.371094 95.902344 201.542969 97.078125 201.542969 98.527344 L 201.542969 167.828125 C 201.542969 169.277344 200.371094 170.453125 198.921875 170.453125 C 197.472656 170.453125 196.296875 169.277344 196.296875 167.828125 L 196.296875 98.527344 C 196.296875 97.078125 197.472656 95.902344 198.921875 95.902344 Z M 198.921875 95.902344 " fill-opacity="1" fill-rule="evenodd"/><path fill="#ffffff" d="M 228.628906 98.003906 C 230.082031 98.003906 231.253906 99.179688 231.253906 100.628906 L 231.253906 169.929688 C 231.253906 171.378906 230.082031 172.554688 228.628906 172.554688 C 227.179688 172.554688 226.003906 171.378906 226.003906 169.929688 L 226.003906 100.628906 C 226.003906 99.179688 227.179688 98.003906 228.628906 98.003906 Z M 228.628906 98.003906 " fill-opacity="1" fill-rule="evenodd"/><path fill="#ffffff" d="M 271.84375 94.851562 C 273.292969 94.851562 274.46875 96.027344 274.46875 97.476562 L 274.46875 166.777344 C 274.46875 168.226562 273.292969 169.402344 271.84375 169.402344 C 270.394531 169.402344 269.21875 168.226562 269.21875 166.777344 L 269.21875 97.476562 C 269.21875 96.027344 270.394531 94.851562 271.84375 94.851562 Z M 271.84375 94.851562 " fill-opacity="1" fill-rule="evenodd"/><path fill="#ffffff" d="M 140.851562 96.953125 C 142.300781 96.953125 143.476562 98.128906 143.476562 99.578125 L 143.476562 168.878906 C 143.476562 170.328125 142.300781 171.503906 140.851562 171.503906 C 139.402344 171.503906 138.226562 170.328125 138.226562 168.878906 L 138.226562 99.578125 C 138.226562 98.128906 139.402344 96.953125 140.851562 96.953125 Z M 140.851562 96.953125 " fill-opacity="1" fill-rule="evenodd"/><path fill="#ffffff" d="M 125.996094 108.503906 C 127.445312 108.503906 128.621094 109.679688 128.621094 111.128906 L 128.621094 159.429688 C 128.621094 160.878906 127.445312 162.054688 125.996094 162.054688 C 124.546875 162.054688 123.371094 160.878906 123.371094 159.429688 L 123.371094 111.128906 C 123.371094 109.679688 124.546875 108.503906 125.996094 108.503906 Z M 125.996094 108.503906 " fill-opacity="1" fill-rule="evenodd"/><path fill="#ffffff" d="M 155.707031 108.503906 C 157.15625 108.503906 158.332031 109.679688 158.332031 111.128906 L 158.332031 159.429688 C 158.332031 160.878906 157.15625 162.054688 155.707031 162.054688 C 154.257812 162.054688 153.082031 160.878906 153.082031 159.429688 L 153.082031 111.128906 C 153.082031 109.679688 154.257812 108.503906 155.707031 108.503906 Z M 155.707031 108.503906 " fill-opacity="1" fill-rule="evenodd"/><path fill="#ffffff" d="M 170.5625 117.953125 C 172.011719 117.953125 173.183594 119.128906 173.183594 120.578125 L 173.183594 146.828125 C 173.183594 148.277344 172.011719 149.453125 170.5625 149.453125 C 169.113281 149.453125 167.9375 148.277344 167.9375 146.828125 L 167.9375 120.578125 C 167.9375 119.128906 169.113281 117.953125 170.5625 117.953125 Z M 170.5625 117.953125 " fill-opacity="1" fill-rule="evenodd"/><path fill="#ffffff" d="M 243.484375 119.003906 C 244.933594 119.003906 246.109375 120.179688 246.109375 121.628906 L 246.109375 147.878906 C 246.109375 149.328125 244.933594 150.503906 243.484375 150.503906 C 242.035156 150.503906 240.859375 149.328125 240.859375 147.878906 L 240.859375 121.628906 C 240.859375 120.179688 242.035156 119.003906 243.484375 119.003906 Z M 243.484375 119.003906 " fill-opacity="1" fill-rule="evenodd"/><path fill="#ffffff" d="M 286.699219 116.902344 C 288.148438 116.902344 289.324219 118.078125 289.324219 119.527344 L 289.324219 145.777344 C 289.324219 147.226562 288.148438 148.402344 286.699219 148.402344 C 285.25 148.402344 284.074219 147.226562 284.074219 145.777344 L 284.074219 119.527344 C 284.074219 118.078125 285.25 116.902344 286.699219 116.902344 Z M 286.699219 116.902344 " fill-opacity="1" fill-rule="evenodd"/><path fill="#ffffff" d="M 316.410156 116.902344 C 317.859375 116.902344 319.035156 118.078125 319.035156 119.527344 L 319.035156 145.777344 C 319.035156 147.226562 317.859375 148.402344 316.410156 148.402344 C 314.960938 148.402344 313.785156 147.226562 313.785156 145.777344 L 313.785156 119.527344 C 313.785156 118.078125 314.960938 116.902344 316.410156 116.902344 Z M 316.410156 116.902344 " fill-opacity="1" fill-rule="evenodd"/><path fill="#ffffff" d="M 39.566406 116.902344 C 41.015625 116.902344 42.191406 118.078125 42.191406 119.527344 L 42.191406 145.777344 C 42.191406 147.226562 41.015625 148.402344 39.566406 148.402344 C 38.117188 148.402344 36.941406 147.226562 36.941406 145.777344 L 36.941406 119.527344 C 36.941406 118.078125 38.117188 116.902344 39.566406 116.902344 Z M 39.566406 116.902344 " fill-opacity="1" fill-rule="evenodd"/><path fill="#ffffff" d="M 344.769531 116.902344 C 346.21875 116.902344 347.394531 118.078125 347.394531 119.527344 L 347.394531 145.777344 C 347.394531 147.226562 346.21875 148.402344 344.769531 148.402344 C 343.320312 148.402344 342.144531 147.226562 342.144531 145.777344 L 342.144531 119.527344 C 342.144531 118.078125 343.320312 116.902344 344.769531 116.902344 Z M 344.769531 116.902344 " fill-opacity="1" fill-rule="evenodd"/><path fill="#ffffff" d="M 67.925781 116.902344 C 69.375 116.902344 70.550781 118.078125 70.550781 119.527344 L 70.550781 145.777344 C 70.550781 147.226562 69.375 148.402344 67.925781 148.402344 C 66.476562 148.402344 65.300781 147.226562 65.300781 145.777344 L 65.300781 119.527344 C 65.300781 118.078125 66.476562 116.902344 67.925781 116.902344 Z M 67.925781 116.902344 " fill-opacity="1" fill-rule="evenodd"/><path fill="#ffffff" d="M 112.492188 116.902344 C 113.941406 116.902344 115.117188 118.078125 115.117188 119.527344 L 115.117188 145.777344 C 115.117188 147.226562 113.941406 148.402344 112.492188 148.402344 C 111.042969 148.402344 109.867188 147.226562 109.867188 145.777344 L 109.867188 119.527344 C 109.867188 118.078125 111.042969 116.902344 112.492188 116.902344 Z M 112.492188 116.902344 " fill-opacity="1" fill-rule="evenodd"/><path fill="#ffffff" d="M 97.636719 124.253906 C 99.085938 124.253906 100.261719 125.429688 100.261719 126.878906 L 100.261719 142.628906 C 100.261719 144.078125 99.085938 145.253906 97.636719 145.253906 C 96.1875 145.253906 95.011719 144.078125 95.011719 142.628906 L 95.011719 126.878906 C 95.011719 125.429688 96.1875 124.253906 97.636719 124.253906 Z M 97.636719 124.253906 " fill-opacity="1" fill-rule="evenodd"/><path fill="#ffffff" d="M 301.554688 124.253906 C 303.003906 124.253906 304.179688 125.429688 304.179688 126.878906 L 304.179688 142.628906 C 304.179688 144.078125 303.003906 145.253906 301.554688 145.253906 C 300.105469 145.253906 298.929688 144.078125 298.929688 142.628906 L 298.929688 126.878906 C 298.929688 125.429688 300.105469 124.253906 301.554688 124.253906 Z M 301.554688 124.253906 " fill-opacity="1" fill-rule="evenodd"/><path fill="#ffffff" d="M 24.714844 124.253906 C 26.164062 124.253906 27.335938 125.429688 27.335938 126.878906 L 27.335938 142.628906 C 27.335938 144.078125 26.164062 145.253906 24.714844 145.253906 C 23.261719 145.253906 22.089844 144.078125 22.089844 142.628906 L 22.089844 126.878906 C 22.089844 125.429688 23.261719 124.253906 24.714844 124.253906 Z M 24.714844 124.253906 " fill-opacity="1" fill-rule="evenodd"/><g clip-path="url(#b7085b0033)"><path fill="#ffffff" d="M 359.625 124.253906 C 361.074219 124.253906 362.25 125.429688 362.25 126.878906 L 362.25 142.628906 C 362.25 144.078125 361.074219 145.253906 359.625 145.253906 C 358.171875 145.253906 357 144.078125 357 142.628906 L 357 126.878906 C 357 125.429688 358.171875 124.253906 359.625 124.253906 Z M 359.625 124.253906 " fill-opacity="1" fill-rule="evenodd"/></g><path fill="#ffffff" d="M 82.78125 124.253906 C 84.230469 124.253906 85.40625 125.429688 85.40625 126.878906 L 85.40625 142.628906 C 85.40625 144.078125 84.230469 145.253906 82.78125 145.253906 C 81.332031 145.253906 80.15625 144.078125 80.15625 142.628906 L 80.15625 126.878906 C 80.15625 125.429688 81.332031 124.253906 82.78125 124.253906 Z M 82.78125 124.253906 " fill-opacity="1" fill-rule="evenodd"/><path fill="#ffffff" d="M 185.417969 107.453125 C 186.867188 107.453125 188.042969 108.628906 188.042969 110.078125 L 188.042969 157.328125 C 188.042969 158.777344 186.867188 159.953125 185.417969 159.953125 C 183.964844 159.953125 182.792969 158.777344 182.792969 157.328125 L 182.792969 110.078125 C 182.792969 108.628906 183.964844 107.453125 185.417969 107.453125 Z M 185.417969 107.453125 " fill-opacity="1" fill-rule="evenodd"/><path fill="#ffffff" d="M 258.339844 108.503906 C 259.789062 108.503906 260.964844 109.679688 260.964844 111.128906 L 260.964844 158.378906 C 260.964844 159.828125 259.789062 161.003906 258.339844 161.003906 C 256.890625 161.003906 255.714844 159.828125 255.714844 158.378906 L 255.714844 111.128906 C 255.714844 109.679688 256.890625 108.503906 258.339844 108.503906 Z M 258.339844 108.503906 " fill-opacity="1" fill-rule="evenodd"/><path fill="#ffffff" d="M 329.914062 105.351562 C 331.363281 105.351562 332.539062 106.527344 332.539062 107.976562 L 332.539062 155.226562 C 332.539062 156.675781 331.363281 157.851562 329.914062 157.851562 C 328.464844 157.851562 327.289062 156.675781 327.289062 155.226562 L 327.289062 107.976562 C 327.289062 106.527344 328.464844 105.351562 329.914062 105.351562 Z M 329.914062 105.351562 " fill-opacity="1" fill-rule="evenodd"/><path fill="#ffffff" d="M 54.421875 105.351562 C 55.871094 105.351562 57.046875 106.527344 57.046875 107.976562 L 57.046875 155.226562 C 57.046875 156.675781 55.871094 157.851562 54.421875 157.851562 C 52.972656 157.851562 51.796875 156.675781 51.796875 155.226562 L 51.796875 107.976562 C 51.796875 106.527344 52.972656 105.351562 54.421875 105.351562 Z M 54.421875 105.351562 " fill-opacity="1" fill-rule="evenodd"/><g clip-path="url(#cf387529c4)"><path fill="#ffffff" d="M 334.675781 302.265625 L 344.992188 323.21875 L 368.0625 326.578125 L 351.371094 342.886719 L 355.3125 365.917969 L 334.675781 355.042969 L 314.042969 365.917969 L 317.984375 342.886719 L 301.289062 326.578125 L 324.359375 323.21875 L 334.675781 302.265625 " fill-opacity="1" fill-rule="nonzero"/></g><path fill="#95389e" d="M 337.136719 329.246094 C 336.292969 329.199219 336.367188 329.773438 336.34375 330.0625 C 336.125 332.609375 335.550781 334.554688 335.046875 337.054688 C 334.949219 337.507812 334.996094 337.484375 334.683594 337.484375 C 333.316406 337.484375 330.289062 337.628906 328.96875 337.652344 C 328.726562 337.652344 328.703125 337.582031 328.800781 337.148438 C 329.207031 335.226562 329.589844 333.28125 329.953125 331.457031 C 330.070312 330.757812 330.265625 330.183594 330.167969 329.460938 C 330.097656 329.078125 329.6875 328.835938 329.0625 328.789062 C 328.320312 328.742188 328.367188 329.246094 328.34375 329.460938 C 328.078125 332.007812 327.214844 334.628906 326.878906 337.101562 C 326.828125 337.484375 326.660156 337.75 326.492188 337.773438 C 325.484375 337.917969 325.21875 338.015625 325.171875 338.253906 L 325.195312 338.230469 C 324.980469 338.710938 325.507812 339.144531 326.230469 339.167969 L 326.132812 339.167969 C 326.445312 339.265625 326.445312 339.167969 326.398438 339.285156 C 326.15625 340.441406 326.035156 341.546875 325.769531 342.625 C 325.582031 343.445312 325.242188 344.523438 325.386719 345.628906 C 325.484375 345.988281 325.582031 346.085938 325.964844 346.207031 C 326.253906 346.277344 326.46875 346.183594 326.757812 345.96875 L 326.78125 345.941406 C 327.140625 345.535156 327.261719 345.222656 327.382812 344.429688 C 327.644531 342.722656 328.054688 341.355469 328.292969 339.71875 C 328.390625 339.117188 328.4375 339.097656 328.824219 339.046875 C 329.496094 338.976562 331.394531 338.878906 332.257812 338.878906 L 332.28125 338.878906 C 332.761719 338.855469 333.988281 338.902344 334.683594 338.949219 C 334.878906 338.949219 334.757812 338.878906 334.683594 339.265625 C 334.492188 340.511719 334.15625 342.050781 333.964844 343.15625 L 333.964844 343.179688 C 333.917969 343.851562 333.796875 344.453125 333.773438 345.101562 L 333.773438 345.078125 C 333.699219 345.558594 333.964844 345.84375 334.566406 345.941406 C 335.117188 346.039062 335.550781 345.773438 335.71875 345.222656 C 335.980469 344.429688 335.957031 343.585938 336.101562 342.84375 C 336.65625 339.816406 337.0625 336.523438 337.640625 333.714844 C 337.902344 332.414062 338.046875 331.527344 338.214844 330.183594 C 338.238281 329.605469 337.832031 329.269531 337.136719 329.246094 Z M 337.136719 329.246094 " fill-opacity="1" fill-rule="nonzero"/><path fill="#95389e" d="M 342.203125 333.210938 C 343.019531 333.136719 343.453125 332.777344 343.429688 332.175781 C 343.429688 331.550781 342.804688 331.046875 342.179688 331.144531 C 341.460938 331.238281 341.027344 331.597656 340.957031 332.152344 C 340.90625 332.707031 341.582031 333.234375 342.203125 333.210938 Z M 341.410156 345.535156 C 342.566406 345.558594 343.765625 344.980469 344.488281 344.210938 C 344.824219 343.5625 345.472656 343.011719 345.375 342.289062 C 345.328125 341.929688 345.257812 341.835938 344.894531 341.691406 C 344.246094 341.425781 344.125 341.976562 344.078125 342.027344 C 343.71875 342.722656 343.164062 343.515625 342.683594 343.898438 C 342.347656 344.210938 341.675781 344.453125 341.363281 344.308594 L 341.363281 344.332031 C 341.21875 344.234375 341.21875 343.613281 341.21875 343.132812 C 341.339844 341.257812 341.75 339.433594 342.179688 337.652344 C 342.324219 337.101562 342.421875 336.546875 342.515625 335.78125 C 342.566406 335.324219 342.277344 335.035156 341.699219 334.914062 L 341.722656 334.914062 C 341.316406 334.820312 340.882812 335.011719 340.789062 335.371094 L 340.761719 335.394531 C 340.234375 337.894531 339.492188 340.296875 339.296875 342.796875 C 339.179688 344.429688 339.996094 345.507812 341.410156 345.535156 Z M 341.410156 345.535156 " fill-opacity="1" fill-rule="nonzero"/><g fill="#ffffff" fill-opacity="1"><g transform="translate(37.658207, 239.763175)"><g><path d="M 20.757812 -28.757812 C 20.558594 -28.878906 20.039062 -29 19.679688 -29 C 16.917969 -29 15.160156 -29.039062 12.839844 -28.957031 C 9 -28.839844 6.558594 -28.839844 3.679688 -28.238281 C 2.679688 -28.039062 2.238281 -27.679688 2.398438 -27.117188 C 2.558594 -26.398438 3.28125 -25.917969 4.238281 -25.917969 C 4.519531 -25.917969 4.839844 -25.957031 5.359375 -26.078125 L 5.28125 -26.078125 C 5.679688 -26.117188 5.601562 -26.117188 5.519531 -25.71875 L 1.640625 -8.238281 C 1.078125 -5.71875 0.238281 -3.398438 0.199219 -0.839844 C 0.199219 0.359375 0.601562 0.839844 1.679688 0.960938 C 3.28125 1.078125 3.320312 -0.0390625 3.398438 -0.679688 C 4.039062 -4.878906 5.160156 -8.917969 5.917969 -12.917969 C 5.960938 -13.238281 5.878906 -13.320312 5.878906 -13.320312 L 6 -13.320312 C 7.917969 -13.359375 10.679688 -13.640625 12.519531 -13.800781 C 14.039062 -13.917969 14.199219 -14.117188 13.679688 -15.039062 C 13.398438 -15.519531 12.71875 -15.800781 11.757812 -15.800781 L 11.800781 -15.800781 C 10.320312 -15.878906 8 -15.71875 6.597656 -15.640625 C 6.359375 -15.640625 6.320312 -15.640625 6.519531 -16.277344 C 7.640625 -19.480469 7.800781 -22.558594 8.441406 -25.679688 C 8.519531 -26.199219 8.558594 -26.316406 8.71875 -26.359375 C 10.640625 -26.558594 10.917969 -26.597656 14.359375 -26.679688 C 16.320312 -26.71875 18.277344 -26.558594 20.277344 -26.679688 C 21.117188 -26.757812 21.679688 -27.078125 21.757812 -27.558594 C 21.839844 -28.078125 21.480469 -28.4375 20.757812 -28.757812 Z M 20.757812 -28.757812 "/></g></g></g><g fill="#ffffff" fill-opacity="1"><g transform="translate(57.616221, 239.763175)"><g><path d="M 3.878906 0.28125 C 5.480469 0.71875 7.71875 0.359375 8.679688 -0.558594 C 11.398438 -3.160156 12.640625 -6.320312 12.757812 -10.878906 C 12.757812 -11.757812 12.238281 -12.359375 11.238281 -12.71875 C 10.359375 -13.039062 9.519531 -12.71875 9.679688 -11.960938 L 9.679688 -12 C 9.71875 -11.4375 9.878906 -10.800781 9.757812 -10.320312 C 9.078125 -7.398438 8.398438 -4.558594 6.597656 -2.601562 C 5.640625 -1.519531 5.28125 -1.320312 4.601562 -1.558594 C 3.878906 -1.761719 3.238281 -2.800781 2.960938 -4.28125 C 2.558594 -6.078125 2.601562 -7.398438 3.121094 -9.597656 C 3.839844 -12.640625 4.519531 -15.238281 7.359375 -16.160156 C 8 -16.359375 8.199219 -16.277344 8.480469 -15.839844 C 8.757812 -15.4375 8.640625 -14.917969 8.757812 -14.597656 C 8.960938 -14.078125 9.640625 -13.640625 10.359375 -13.597656 L 10.398438 -13.597656 C 11.039062 -13.597656 11.597656 -13.960938 11.71875 -14.480469 C 12.160156 -16.117188 10.238281 -18 8 -18.078125 C 5.878906 -18.199219 4.078125 -17.277344 2.398438 -15.277344 C 0.800781 -13.320312 0.121094 -11.597656 -0.441406 -8.039062 C -1.121094 -3.441406 0.199219 -0.839844 3.878906 0.28125 Z M 3.878906 0.28125 "/></g></g></g><g fill="#ffffff" fill-opacity="1"><g transform="translate(72.774709, 239.763175)"><g><path d="M 7.441406 0.519531 C 10.398438 -0.121094 13.277344 -2.320312 14.917969 -5.160156 C 15.199219 -5.558594 15.117188 -5.558594 15.199219 -5.757812 C 15.480469 -6.597656 15.4375 -6.71875 14.597656 -7.28125 C 14.238281 -7.480469 13.519531 -7.398438 13.160156 -7.039062 C 12.757812 -6.640625 12.199219 -5.839844 12 -5.601562 C 10.519531 -3.800781 8.71875 -2.398438 7.199219 -1.800781 C 5.121094 -0.921875 3.398438 -2 2.800781 -4.519531 C 2.71875 -4.800781 2.679688 -5.238281 2.679688 -6 C 2.679688 -8.359375 2.960938 -10 3.71875 -11.839844 C 4.519531 -13.960938 5.601562 -15.4375 6.917969 -16.320312 C 7.679688 -16.839844 7.800781 -16.800781 8.28125 -16.398438 C 8.640625 -16.039062 8.71875 -15.359375 8.480469 -14.398438 C 8.199219 -13.277344 7.917969 -12.597656 7.597656 -12.359375 C 7.078125 -12.039062 7 -11.917969 7.160156 -11.519531 C 7.359375 -11.039062 7.679688 -10.960938 8.160156 -10.960938 C 10.480469 -10.960938 11.597656 -12.839844 11.4375 -15.117188 C 11.359375 -16.359375 10.519531 -17.480469 9 -18.277344 C 7.71875 -19 5.558594 -18.277344 5.039062 -17.878906 C 4.199219 -17.238281 3.601562 -16.679688 2.917969 -15.917969 L 2.878906 -15.917969 C 1.199219 -13.800781 0.28125 -11.519531 -0.480469 -7.441406 L -0.480469 -7.398438 C -0.519531 -6.839844 -0.601562 -6.121094 -0.601562 -5.640625 C -0.601562 -1.480469 3.199219 1.441406 7.441406 0.519531 Z M 7.441406 0.519531 "/></g></g></g><g fill="#ffffff" fill-opacity="1"><g transform="translate(86.533345, 239.763175)"><g><path d="M 9.160156 -0.398438 C 11.078125 0.761719 13.679688 -0.519531 14.519531 -1.398438 C 16 -2.917969 17.320312 -5.160156 17.160156 -6 C 17.039062 -6.597656 16.757812 -6.839844 16.160156 -6.917969 C 15.199219 -7.039062 15 -6.28125 14.917969 -6.199219 C 14 -5 13.398438 -3.839844 12.640625 -3.078125 C 11.640625 -2.078125 11.320312 -1.839844 10.71875 -2.039062 C 10.480469 -2.121094 10.238281 -2.839844 10.320312 -3.519531 C 10.640625 -7.28125 11.679688 -11.121094 12.277344 -14.71875 C 12.480469 -15.878906 12.121094 -16.359375 11 -16.640625 C 9.359375 -17 9.28125 -15.839844 9.121094 -15.238281 C 8.441406 -12.398438 8.320312 -9.519531 7.199219 -7.039062 C 6.28125 -4.917969 5.558594 -2.960938 3.757812 -2.078125 C 2.800781 -1.679688 2.441406 -2 2.441406 -3.480469 C 2.441406 -4.558594 2.71875 -6.878906 2.960938 -7.917969 C 3.640625 -11.078125 4.078125 -13 4.640625 -16 C 4.757812 -16.800781 4.398438 -17.238281 3.441406 -17.4375 L 3.398438 -17.4375 C 2.601562 -17.558594 1.839844 -17.160156 1.679688 -16.480469 C 1.441406 -15.238281 1.078125 -14.117188 0.839844 -13.039062 C 0.28125 -10.320312 -0.558594 -7.28125 -0.800781 -4.679688 L -0.800781 -4.640625 C -0.800781 -4.320312 -0.761719 -4.121094 -0.761719 -3.878906 C -0.640625 -0.398438 3.28125 1.480469 6.160156 -0.480469 C 6.800781 -0.960938 7.160156 -1.238281 7.71875 -1.917969 C 7.757812 -1.71875 8.199219 -1 9.160156 -0.398438 Z M 9.160156 -0.398438 "/></g></g></g><g fill="#ffffff" fill-opacity="1"><g transform="translate(102.091804, 239.763175)"><g><path d="M 3.960938 0.398438 C 5.960938 0.398438 7.121094 -0.28125 8.480469 -1 C 9.960938 -1.761719 11.121094 -3.519531 11.199219 -5.039062 C 11.398438 -8.121094 9.800781 -10.359375 6.359375 -11.839844 C 5.878906 -11.960938 5.121094 -12.277344 4.320312 -12.597656 C 3.601562 -12.917969 3.519531 -13.039062 4.28125 -13.757812 C 5.359375 -14.71875 6.640625 -15.199219 9.597656 -15.757812 C 10.71875 -15.960938 11.078125 -16.199219 10.878906 -16.839844 C 10.679688 -17.757812 10.039062 -18.199219 9.160156 -18.039062 C 6.839844 -17.640625 3.359375 -17 1.679688 -15.078125 C 0.078125 -13.277344 0.679688 -11.160156 2.960938 -10.320312 C 3.839844 -10 4.839844 -9.839844 5.71875 -9.320312 C 7.480469 -8.28125 7.960938 -7.757812 8.160156 -6.679688 C 8.359375 -5.480469 7.960938 -4.238281 7.238281 -3.679688 C 5.878906 -2.601562 5.441406 -2.359375 4.039062 -2.28125 C 2.320312 -2.199219 1.679688 -3.039062 1.398438 -5.71875 C 1.359375 -5.917969 1.238281 -6.199219 0.558594 -6.320312 C 0.160156 -6.398438 -0.320312 -6.28125 -0.519531 -5.878906 C -1.28125 -4.519531 -1.160156 -2.519531 -0.199219 -1.199219 C 0.558594 -0.238281 2.238281 0.398438 3.960938 0.398438 Z M 3.960938 0.398438 "/></g></g></g><g fill="#ffffff" fill-opacity="1"><g transform="translate(115.690451, 239.763175)"><g/></g></g><g fill="#ffffff" fill-opacity="1"><g transform="translate(123.689653, 239.763175)"><g><path d="M 3.878906 0.28125 C 5.480469 0.71875 7.71875 0.359375 8.679688 -0.558594 C 11.398438 -3.160156 12.640625 -6.320312 12.757812 -10.878906 C 12.757812 -11.757812 12.238281 -12.359375 11.238281 -12.71875 C 10.359375 -13.039062 9.519531 -12.71875 9.679688 -11.960938 L 9.679688 -12 C 9.71875 -11.4375 9.878906 -10.800781 9.757812 -10.320312 C 9.078125 -7.398438 8.398438 -4.558594 6.597656 -2.601562 C 5.640625 -1.519531 5.28125 -1.320312 4.601562 -1.558594 C 3.878906 -1.761719 3.238281 -2.800781 2.960938 -4.28125 C 2.558594 -6.078125 2.601562 -7.398438 3.121094 -9.597656 C 3.839844 -12.640625 4.519531 -15.238281 7.359375 -16.160156 C 8 -16.359375 8.199219 -16.277344 8.480469 -15.839844 C 8.757812 -15.4375 8.640625 -14.917969 8.757812 -14.597656 C 8.960938 -14.078125 9.640625 -13.640625 10.359375 -13.597656 L 10.398438 -13.597656 C 11.039062 -13.597656 11.597656 -13.960938 11.71875 -14.480469 C 12.160156 -16.117188 10.238281 -18 8 -18.078125 C 5.878906 -18.199219 4.078125 -17.277344 2.398438 -15.277344 C 0.800781 -13.320312 0.121094 -11.597656 -0.441406 -8.039062 C -1.121094 -3.441406 0.199219 -0.839844 3.878906 0.28125 Z M 3.878906 0.28125 "/></g></g></g><g fill="#ffffff" fill-opacity="1"><g transform="translate(138.848141, 239.763175)"><g><path d="M 17.757812 -6.441406 C 16.71875 -6.640625 16.519531 -5.800781 16.4375 -5.71875 L 16.4375 -5.679688 C 15.320312 -4.121094 14.679688 -2.839844 13 -2 C 12.320312 -1.679688 12.039062 -1.800781 11.839844 -2.480469 C 11.597656 -3.320312 11.640625 -4.359375 11.960938 -5.917969 C 12.558594 -8.71875 13.238281 -11.398438 13.800781 -14.078125 C 14.039062 -15.277344 13.640625 -16.277344 12.519531 -17.398438 C 11.679688 -18.160156 10.238281 -18.359375 9 -17.839844 C 7.558594 -17.238281 6.359375 -16.398438 5.078125 -15.078125 C 4.601562 -14.558594 4.199219 -14.078125 3.878906 -13.597656 L 4.28125 -15.839844 C 4.519531 -16.878906 4.238281 -17.320312 3.160156 -17.597656 L 3.121094 -17.597656 C 2.121094 -17.800781 1.519531 -17.320312 1.320312 -16.277344 C 0.839844 -13.71875 0.320312 -11.121094 -0.121094 -8.640625 L -1.359375 -2.199219 C -1.480469 -1.28125 -1.039062 -0.679688 0 -0.359375 L 0.0390625 -0.359375 C 1.398438 -0.0390625 1.601562 -1.121094 1.71875 -1.558594 C 3 -5.441406 4.121094 -9.199219 6.480469 -12.277344 C 7.679688 -13.878906 8.757812 -15.199219 10.320312 -15.800781 C 10.878906 -16.078125 11 -16 10.800781 -15 C 10.640625 -14.160156 10.4375 -13.480469 10.320312 -12.800781 C 9.800781 -10.039062 8.878906 -7.398438 8.640625 -4.71875 C 8.558594 -3.71875 8.640625 -2.960938 9 -2.039062 C 9.597656 -0.320312 12.398438 0.839844 14.117188 0.121094 C 15.960938 -0.71875 17.320312 -1.839844 18.078125 -3.238281 C 18.519531 -4 18.71875 -4.558594 18.796875 -5.238281 C 18.878906 -5.839844 18.480469 -6.320312 17.757812 -6.441406 Z M 17.757812 -6.441406 "/></g></g></g><g fill="#ffffff" fill-opacity="1"><g transform="translate(156.046436, 239.763175)"><g/></g></g><g fill="#ffffff" fill-opacity="1"><g transform="translate(164.045638, 239.763175)"><g><path d="M 4.039062 0.441406 C 6.679688 0.558594 9.238281 -1.761719 10 -2.679688 C 10.839844 -3.640625 11.359375 -4.558594 11.160156 -4.960938 C 10.71875 -5.960938 9.519531 -6.078125 8.960938 -5.320312 C 8.160156 -4.199219 6.238281 -2.71875 5.238281 -2.238281 C 3.558594 -1.398438 2.519531 -1.839844 2.480469 -3.480469 C 2.398438 -6.679688 3.441406 -10.519531 4.121094 -13.480469 C 4.441406 -14.839844 4.601562 -15.199219 4.640625 -15.199219 L 4.71875 -15.199219 C 5.160156 -15.277344 6.480469 -15.320312 6.917969 -15.359375 C 7.800781 -15.4375 8.28125 -15.679688 8.359375 -16.117188 C 8.398438 -16.71875 7.917969 -17.277344 7.078125 -17.359375 C 6.28125 -17.398438 5.878906 -17.320312 5.558594 -17.277344 C 5.160156 -17.238281 5.121094 -17.117188 5.199219 -17.679688 C 5.558594 -19.839844 5.878906 -20.277344 6 -22.359375 C 6.039062 -23.277344 5.71875 -23.71875 4.71875 -23.957031 C 3.757812 -24.199219 3 -23.757812 2.800781 -22.757812 C 2.28125 -20.597656 2.238281 -20.078125 1.761719 -18.117188 C 1.601562 -16.878906 1.71875 -17.039062 1.398438 -17.039062 C 0.359375 -17 -0.398438 -16.71875 -0.519531 -16.398438 L -0.558594 -16.359375 C -0.71875 -15.71875 -0.359375 -15.359375 0.398438 -15.277344 L 0.441406 -15.277344 C 1.398438 -15.277344 1.28125 -15.480469 1.121094 -14.839844 C 1 -14.519531 0.71875 -13.480469 0.679688 -13.121094 C 0.398438 -10.4375 -0.761719 -7.199219 -0.800781 -4.558594 C -0.800781 -1.558594 1 0.28125 4.039062 0.441406 Z M 4.039062 0.441406 "/></g></g></g><g fill="#ffffff" fill-opacity="1"><g transform="translate(173.684675, 239.763175)"><g><path d="M 17.757812 -5.199219 L 17.800781 -5.199219 C 17.238281 -5.558594 17.039062 -5.480469 16.238281 -4.558594 C 15.117188 -3.28125 13.917969 -2.121094 13.039062 -1.519531 C 12.480469 -1.121094 11.359375 -1.121094 11.160156 -1.71875 C 11 -2.160156 11.039062 -3.039062 11.277344 -4 C 11.839844 -7.28125 13.679688 -11.160156 14.320312 -14.238281 C 14.679688 -16.078125 13.320312 -17.757812 11.199219 -18 C 9.359375 -18.238281 7.558594 -17.519531 6.28125 -16.320312 C 5.441406 -15.558594 4.519531 -14.199219 3.757812 -13 C 4.601562 -17.117188 5.960938 -22.4375 6.640625 -26 C 6.839844 -27.238281 6.839844 -27.199219 6.558594 -27.757812 C 6.359375 -28.160156 5.71875 -28.4375 5.078125 -28.4375 C 4.359375 -28.4375 3.679688 -28 3.601562 -27.519531 C 3.441406 -26.519531 3.199219 -25.597656 3.078125 -24.757812 C 2.480469 -20.199219 0.960938 -13.640625 0 -9.320312 C -0.640625 -6.878906 -0.878906 -3.878906 -1.359375 -1.640625 C -1.519531 -0.839844 -1.078125 -0.398438 0.0390625 -0.078125 L 0 -0.078125 C 0.839844 0.238281 1.558594 -0.121094 1.800781 -1.039062 C 1.960938 -1.839844 2.039062 -2.679688 2.160156 -3.199219 C 3.199219 -7.28125 4.359375 -9.320312 6.679688 -13.039062 C 7.441406 -14.238281 8.441406 -15.117188 9.558594 -15.800781 C 10.519531 -16.359375 10.640625 -16.398438 11 -16.039062 C 11.199219 -15.917969 11.238281 -15.238281 11 -14.320312 C 10.039062 -10.917969 8.597656 -6.757812 8 -3.757812 L 8 -3.71875 L 7.917969 -2.558594 C 7.878906 -0.480469 10.597656 1.28125 13.039062 0.800781 C 14.960938 0.441406 18.277344 -2.398438 18.398438 -3.800781 C 18.480469 -4.757812 18.4375 -4.839844 17.757812 -5.199219 Z M 17.757812 -5.199219 "/></g></g></g><g fill="#ffffff" fill-opacity="1"><g transform="translate(190.523007, 239.763175)"><g><path d="M 4.039062 -20.320312 C 5.398438 -20.4375 6.121094 -21.039062 6.078125 -22.039062 C 6.078125 -23.078125 5.039062 -23.917969 4 -23.757812 C 2.800781 -23.597656 2.078125 -23 1.960938 -22.078125 C 1.878906 -21.160156 3 -20.277344 4.039062 -20.320312 Z M 2.71875 0.199219 C 4.640625 0.238281 6.640625 -0.71875 7.839844 -2 C 8.398438 -3.078125 9.480469 -4 9.320312 -5.199219 C 9.238281 -5.800781 9.121094 -5.960938 8.519531 -6.199219 C 7.441406 -6.640625 7.238281 -5.71875 7.160156 -5.640625 C 6.558594 -4.480469 5.640625 -3.160156 4.839844 -2.519531 C 4.28125 -2 3.160156 -1.601562 2.640625 -1.839844 L 2.640625 -1.800781 C 2.398438 -1.960938 2.398438 -3 2.398438 -3.800781 C 2.601562 -6.917969 3.28125 -9.960938 4 -12.917969 C 4.238281 -13.839844 4.398438 -14.757812 4.558594 -16.039062 C 4.640625 -16.800781 4.160156 -17.277344 3.199219 -17.480469 L 3.238281 -17.480469 C 2.558594 -17.640625 1.839844 -17.320312 1.679688 -16.71875 L 1.640625 -16.679688 C 0.761719 -12.519531 -0.480469 -8.519531 -0.800781 -4.359375 C -1 -1.640625 0.359375 0.160156 2.71875 0.199219 Z M 2.71875 0.199219 "/></g></g></g><g fill="#ffffff" fill-opacity="1"><g transform="translate(198.242241, 239.763175)"><g><path d="M 3.960938 0.398438 C 5.960938 0.398438 7.121094 -0.28125 8.480469 -1 C 9.960938 -1.761719 11.121094 -3.519531 11.199219 -5.039062 C 11.398438 -8.121094 9.800781 -10.359375 6.359375 -11.839844 C 5.878906 -11.960938 5.121094 -12.277344 4.320312 -12.597656 C 3.601562 -12.917969 3.519531 -13.039062 4.28125 -13.757812 C 5.359375 -14.71875 6.640625 -15.199219 9.597656 -15.757812 C 10.71875 -15.960938 11.078125 -16.199219 10.878906 -16.839844 C 10.679688 -17.757812 10.039062 -18.199219 9.160156 -18.039062 C 6.839844 -17.640625 3.359375 -17 1.679688 -15.078125 C 0.078125 -13.277344 0.679688 -11.160156 2.960938 -10.320312 C 3.839844 -10 4.839844 -9.839844 5.71875 -9.320312 C 7.480469 -8.28125 7.960938 -7.757812 8.160156 -6.679688 C 8.359375 -5.480469 7.960938 -4.238281 7.238281 -3.679688 C 5.878906 -2.601562 5.441406 -2.359375 4.039062 -2.28125 C 2.320312 -2.199219 1.679688 -3.039062 1.398438 -5.71875 C 1.359375 -5.917969 1.238281 -6.199219 0.558594 -6.320312 C 0.160156 -6.398438 -0.320312 -6.28125 -0.519531 -5.878906 C -1.28125 -4.519531 -1.160156 -2.519531 -0.199219 -1.199219 C 0.558594 -0.238281 2.238281 0.398438 3.960938 0.398438 Z M 3.960938 0.398438 "/></g></g></g><g fill="#ffffff" fill-opacity="1"><g transform="translate(211.840888, 239.763175)"><g/></g></g><g fill="#ffffff" fill-opacity="1"><g transform="translate(219.84009, 239.763175)"><g><path d="M 3.960938 0.398438 C 5.960938 0.398438 7.121094 -0.28125 8.480469 -1 C 9.960938 -1.761719 11.121094 -3.519531 11.199219 -5.039062 C 11.398438 -8.121094 9.800781 -10.359375 6.359375 -11.839844 C 5.878906 -11.960938 5.121094 -12.277344 4.320312 -12.597656 C 3.601562 -12.917969 3.519531 -13.039062 4.28125 -13.757812 C 5.359375 -14.71875 6.640625 -15.199219 9.597656 -15.757812 C 10.71875 -15.960938 11.078125 -16.199219 10.878906 -16.839844 C 10.679688 -17.757812 10.039062 -18.199219 9.160156 -18.039062 C 6.839844 -17.640625 3.359375 -17 1.679688 -15.078125 C 0.078125 -13.277344 0.679688 -11.160156 2.960938 -10.320312 C 3.839844 -10 4.839844 -9.839844 5.71875 -9.320312 C 7.480469 -8.28125 7.960938 -7.757812 8.160156 -6.679688 C 8.359375 -5.480469 7.960938 -4.238281 7.238281 -3.679688 C 5.878906 -2.601562 5.441406 -2.359375 4.039062 -2.28125 C 2.320312 -2.199219 1.679688 -3.039062 1.398438 -5.71875 C 1.359375 -5.917969 1.238281 -6.199219 0.558594 -6.320312 C 0.160156 -6.398438 -0.320312 -6.28125 -0.519531 -5.878906 C -1.28125 -4.519531 -1.160156 -2.519531 -0.199219 -1.199219 C 0.558594 -0.238281 2.238281 0.398438 3.960938 0.398438 Z M 3.960938 0.398438 "/></g></g></g><g fill="#ffffff" fill-opacity="1"><g transform="translate(233.438726, 239.763175)"><g><path d="M 3.878906 0.28125 C 5.480469 0.71875 7.71875 0.359375 8.679688 -0.558594 C 11.398438 -3.160156 12.640625 -6.320312 12.757812 -10.878906 C 12.757812 -11.757812 12.238281 -12.359375 11.238281 -12.71875 C 10.359375 -13.039062 9.519531 -12.71875 9.679688 -11.960938 L 9.679688 -12 C 9.71875 -11.4375 9.878906 -10.800781 9.757812 -10.320312 C 9.078125 -7.398438 8.398438 -4.558594 6.597656 -2.601562 C 5.640625 -1.519531 5.28125 -1.320312 4.601562 -1.558594 C 3.878906 -1.761719 3.238281 -2.800781 2.960938 -4.28125 C 2.558594 -6.078125 2.601562 -7.398438 3.121094 -9.597656 C 3.839844 -12.640625 4.519531 -15.238281 7.359375 -16.160156 C 8 -16.359375 8.199219 -16.277344 8.480469 -15.839844 C 8.757812 -15.4375 8.640625 -14.917969 8.757812 -14.597656 C 8.960938 -14.078125 9.640625 -13.640625 10.359375 -13.597656 L 10.398438 -13.597656 C 11.039062 -13.597656 11.597656 -13.960938 11.71875 -14.480469 C 12.160156 -16.117188 10.238281 -18 8 -18.078125 C 5.878906 -18.199219 4.078125 -17.277344 2.398438 -15.277344 C 0.800781 -13.320312 0.121094 -11.597656 -0.441406 -8.039062 C -1.121094 -3.441406 0.199219 -0.839844 3.878906 0.28125 Z M 3.878906 0.28125 "/></g></g></g><g fill="#ffffff" fill-opacity="1"><g transform="translate(248.597203, 239.763175)"><g><path d="M 9.160156 -0.398438 C 11.078125 0.761719 13.679688 -0.519531 14.519531 -1.398438 C 16 -2.917969 17.320312 -5.160156 17.160156 -6 C 17.039062 -6.597656 16.757812 -6.839844 16.160156 -6.917969 C 15.199219 -7.039062 15 -6.28125 14.917969 -6.199219 C 14 -5 13.398438 -3.839844 12.640625 -3.078125 C 11.640625 -2.078125 11.320312 -1.839844 10.71875 -2.039062 C 10.480469 -2.121094 10.238281 -2.839844 10.320312 -3.519531 C 10.640625 -7.28125 11.679688 -11.121094 12.277344 -14.71875 C 12.480469 -15.878906 12.121094 -16.359375 11 -16.640625 C 9.359375 -17 9.28125 -15.839844 9.121094 -15.238281 C 8.441406 -12.398438 8.320312 -9.519531 7.199219 -7.039062 C 6.28125 -4.917969 5.558594 -2.960938 3.757812 -2.078125 C 2.800781 -1.679688 2.441406 -2 2.441406 -3.480469 C 2.441406 -4.558594 2.71875 -6.878906 2.960938 -7.917969 C 3.640625 -11.078125 4.078125 -13 4.640625 -16 C 4.757812 -16.800781 4.398438 -17.238281 3.441406 -17.4375 L 3.398438 -17.4375 C 2.601562 -17.558594 1.839844 -17.160156 1.679688 -16.480469 C 1.441406 -15.238281 1.078125 -14.117188 0.839844 -13.039062 C 0.28125 -10.320312 -0.558594 -7.28125 -0.800781 -4.679688 L -0.800781 -4.640625 C -0.800781 -4.320312 -0.761719 -4.121094 -0.761719 -3.878906 C -0.640625 -0.398438 3.28125 1.480469 6.160156 -0.480469 C 6.800781 -0.960938 7.160156 -1.238281 7.71875 -1.917969 C 7.757812 -1.71875 8.199219 -1 9.160156 -0.398438 Z M 9.160156 -0.398438 "/></g></g></g><g fill="#ffffff" fill-opacity="1"><g transform="translate(264.155673, 239.763175)"><g><path d="M 17.757812 -6.441406 C 16.71875 -6.640625 16.519531 -5.800781 16.4375 -5.71875 L 16.4375 -5.679688 C 15.320312 -4.121094 14.679688 -2.839844 13 -2 C 12.320312 -1.679688 12.039062 -1.800781 11.839844 -2.480469 C 11.597656 -3.320312 11.640625 -4.359375 11.960938 -5.917969 C 12.558594 -8.71875 13.238281 -11.398438 13.800781 -14.078125 C 14.039062 -15.277344 13.640625 -16.277344 12.519531 -17.398438 C 11.679688 -18.160156 10.238281 -18.359375 9 -17.839844 C 7.558594 -17.238281 6.359375 -16.398438 5.078125 -15.078125 C 4.601562 -14.558594 4.199219 -14.078125 3.878906 -13.597656 L 4.28125 -15.839844 C 4.519531 -16.878906 4.238281 -17.320312 3.160156 -17.597656 L 3.121094 -17.597656 C 2.121094 -17.800781 1.519531 -17.320312 1.320312 -16.277344 C 0.839844 -13.71875 0.320312 -11.121094 -0.121094 -8.640625 L -1.359375 -2.199219 C -1.480469 -1.28125 -1.039062 -0.679688 0 -0.359375 L 0.0390625 -0.359375 C 1.398438 -0.0390625 1.601562 -1.121094 1.71875 -1.558594 C 3 -5.441406 4.121094 -9.199219 6.480469 -12.277344 C 7.679688 -13.878906 8.757812 -15.199219 10.320312 -15.800781 C 10.878906 -16.078125 11 -16 10.800781 -15 C 10.640625 -14.160156 10.4375 -13.480469 10.320312 -12.800781 C 9.800781 -10.039062 8.878906 -7.398438 8.640625 -4.71875 C 8.558594 -3.71875 8.640625 -2.960938 9 -2.039062 C 9.597656 -0.320312 12.398438 0.839844 14.117188 0.121094 C 15.960938 -0.71875 17.320312 -1.839844 18.078125 -3.238281 C 18.519531 -4 18.71875 -4.558594 18.796875 -5.238281 C 18.878906 -5.839844 18.480469 -6.320312 17.757812 -6.441406 Z M 17.757812 -6.441406 "/></g></g></g><g fill="#ffffff" fill-opacity="1"><g transform="translate(281.353968, 239.763175)"><g><path d="M 7 -0.441406 C 7.960938 -1.28125 8.679688 -2.121094 9.160156 -2.917969 C 9.757812 -1.679688 10.839844 -0.839844 12.320312 -0.441406 C 13.839844 -0.0390625 15.757812 -0.640625 16.558594 -1.800781 C 17.039062 -2.441406 17.398438 -2.917969 17.679688 -3.441406 C 18.320312 -4.679688 18.71875 -5.121094 18.597656 -6 L 18.558594 -6.039062 C 18.480469 -6.320312 18.597656 -6.640625 17.800781 -6.917969 L 17.679688 -6.917969 C 17.117188 -6.960938 16.679688 -6.757812 16.4375 -6.28125 C 15.800781 -4.960938 15 -3.800781 14.199219 -2.917969 C 13.277344 -1.878906 12.398438 -2.160156 11.960938 -3.441406 C 11.277344 -5.320312 11.277344 -7.480469 11.960938 -10.039062 C 13.320312 -15.398438 14.078125 -19.558594 14.839844 -23.757812 C 15 -24.636719 14.960938 -25.238281 14.757812 -25.878906 C 14.597656 -26.519531 13.917969 -26.917969 13.160156 -26.917969 C 11.839844 -27 11.878906 -26.160156 11.800781 -25.839844 C 11.160156 -22.320312 10.199219 -19.71875 9.640625 -16.277344 C 8 -17.878906 5.320312 -18.039062 3.71875 -16.359375 C 1.160156 -13.71875 -0.398438 -9.878906 -0.601562 -5.800781 C -0.679688 -4.359375 -0.199219 -2.839844 0.800781 -1.28125 C 2.28125 0.921875 5.121094 1.320312 7 -0.441406 Z M 3.917969 -1.519531 C 3.679688 -1.441406 3.519531 -1.441406 3.28125 -1.71875 C 2.761719 -2.320312 2.359375 -3.839844 2.480469 -5.359375 C 2.761719 -8.839844 3.441406 -12.320312 5.960938 -14.839844 C 7.078125 -15.960938 7.121094 -16 7.800781 -14.320312 L 7.839844 -14.277344 C 8.121094 -13.800781 8.558594 -13.519531 9.078125 -13.597656 C 9.121094 -13.597656 9 -13.4375 9 -12.960938 C 9 -10 7.757812 -6.039062 6.121094 -3.601562 C 5.320312 -2.519531 4.757812 -1.839844 3.917969 -1.519531 Z M 3.917969 -1.519531 "/></g></g></g><g fill="#ffffff" fill-opacity="1"><g transform="translate(298.392274, 239.763175)"><g/></g></g><g fill="#ffffff" fill-opacity="1"><g transform="translate(306.391464, 239.763175)"><g><path d="M 4.039062 0.441406 C 6.679688 0.558594 9.238281 -1.761719 10 -2.679688 C 10.839844 -3.640625 11.359375 -4.558594 11.160156 -4.960938 C 10.71875 -5.960938 9.519531 -6.078125 8.960938 -5.320312 C 8.160156 -4.199219 6.238281 -2.71875 5.238281 -2.238281 C 3.558594 -1.398438 2.519531 -1.839844 2.480469 -3.480469 C 2.398438 -6.679688 3.441406 -10.519531 4.121094 -13.480469 C 4.441406 -14.839844 4.601562 -15.199219 4.640625 -15.199219 L 4.71875 -15.199219 C 5.160156 -15.277344 6.480469 -15.320312 6.917969 -15.359375 C 7.800781 -15.4375 8.28125 -15.679688 8.359375 -16.117188 C 8.398438 -16.71875 7.917969 -17.277344 7.078125 -17.359375 C 6.28125 -17.398438 5.878906 -17.320312 5.558594 -17.277344 C 5.160156 -17.238281 5.121094 -17.117188 5.199219 -17.679688 C 5.558594 -19.839844 5.878906 -20.277344 6 -22.359375 C 6.039062 -23.277344 5.71875 -23.71875 4.71875 -23.957031 C 3.757812 -24.199219 3 -23.757812 2.800781 -22.757812 C 2.28125 -20.597656 2.238281 -20.078125 1.761719 -18.117188 C 1.601562 -16.878906 1.71875 -17.039062 1.398438 -17.039062 C 0.359375 -17 -0.398438 -16.71875 -0.519531 -16.398438 L -0.558594 -16.359375 C -0.71875 -15.71875 -0.359375 -15.359375 0.398438 -15.277344 L 0.441406 -15.277344 C 1.398438 -15.277344 1.28125 -15.480469 1.121094 -14.839844 C 1 -14.519531 0.71875 -13.480469 0.679688 -13.121094 C 0.398438 -10.4375 -0.761719 -7.199219 -0.800781 -4.558594 C -0.800781 -1.558594 1 0.28125 4.039062 0.441406 Z M 4.039062 0.441406 "/></g></g></g><g fill="#ffffff" fill-opacity="1"><g transform="translate(316.030502, 239.763175)"><g><path d="M 3.878906 0.28125 C 5.480469 0.71875 7.71875 0.359375 8.679688 -0.558594 C 11.398438 -3.160156 12.640625 -6.320312 12.757812 -10.878906 C 12.757812 -11.757812 12.238281 -12.359375 11.238281 -12.71875 C 10.359375 -13.039062 9.519531 -12.71875 9.679688 -11.960938 L 9.679688 -12 C 9.71875 -11.4375 9.878906 -10.800781 9.757812 -10.320312 C 9.078125 -7.398438 8.398438 -4.558594 6.597656 -2.601562 C 5.640625 -1.519531 5.28125 -1.320312 4.601562 -1.558594 C 3.878906 -1.761719 3.238281 -2.800781 2.960938 -4.28125 C 2.558594 -6.078125 2.601562 -7.398438 3.121094 -9.597656 C 3.839844 -12.640625 4.519531 -15.238281 7.359375 -16.160156 C 8 -16.359375 8.199219 -16.277344 8.480469 -15.839844 C 8.757812 -15.4375 8.640625 -14.917969 8.757812 -14.597656 C 8.960938 -14.078125 9.640625 -13.640625 10.359375 -13.597656 L 10.398438 -13.597656 C 11.039062 -13.597656 11.597656 -13.960938 11.71875 -14.480469 C 12.160156 -16.117188 10.238281 -18 8 -18.078125 C 5.878906 -18.199219 4.078125 -17.277344 2.398438 -15.277344 C 0.800781 -13.320312 0.121094 -11.597656 -0.441406 -8.039062 C -1.121094 -3.441406 0.199219 -0.839844 3.878906 0.28125 Z M 3.878906 0.28125 "/></g></g></g><g fill="#ffffff" fill-opacity="1"><g transform="translate(331.188979, 239.763175)"><g><path d="M 3.878906 0.28125 C 5.480469 0.71875 7.71875 0.359375 8.679688 -0.558594 C 11.398438 -3.160156 12.640625 -6.320312 12.757812 -10.878906 C 12.757812 -11.757812 12.238281 -12.359375 11.238281 -12.71875 C 10.359375 -13.039062 9.519531 -12.71875 9.679688 -11.960938 L 9.679688 -12 C 9.71875 -11.4375 9.878906 -10.800781 9.757812 -10.320312 C 9.078125 -7.398438 8.398438 -4.558594 6.597656 -2.601562 C 5.640625 -1.519531 5.28125 -1.320312 4.601562 -1.558594 C 3.878906 -1.761719 3.238281 -2.800781 2.960938 -4.28125 C 2.558594 -6.078125 2.601562 -7.398438 3.121094 -9.597656 C 3.839844 -12.640625 4.519531 -15.238281 7.359375 -16.160156 C 8 -16.359375 8.199219 -16.277344 8.480469 -15.839844 C 8.757812 -15.4375 8.640625 -14.917969 8.757812 -14.597656 C 8.960938 -14.078125 9.640625 -13.640625 10.359375 -13.597656 L 10.398438 -13.597656 C 11.039062 -13.597656 11.597656 -13.960938 11.71875 -14.480469 C 12.160156 -16.117188 10.238281 -18 8 -18.078125 C 5.878906 -18.199219 4.078125 -17.277344 2.398438 -15.277344 C 0.800781 -13.320312 0.121094 -11.597656 -0.441406 -8.039062 C -1.121094 -3.441406 0.199219 -0.839844 3.878906 0.28125 Z M 3.878906 0.28125 "/></g></g></g></svg>